<?xml version="1.0" standalone="no"?>
<!DOCTYPE svg PUBLIC "-//W3C//DTD SVG 20010904//EN"
 "http://www.w3.org/TR/2001/REC-SVG-20010904/DTD/svg10.dtd">
<svg version="1.0" xmlns="http://www.w3.org/2000/svg"
 width="1920.000000pt" height="1080.000000pt" viewBox="0 0 1920.000000 1080.000000"
 preserveAspectRatio="xMidYMid meet">

<g transform="translate(0.000000,1080.000000) scale(0.100000,-0.100000)"
fill="#000000" stroke="none">
<path d="M9985 10090 c-49 -115 -91 -210 -95 -210 -3 0 -66 20 -140 45 -74 25
-136 45 -137 45 -2 0 1 -9 7 -20 8 -14 8 -20 0 -20 -7 0 -81 23 -167 51 -85
28 -156 49 -158 47 -2 -2 14 -31 35 -65 29 -45 48 -64 73 -72 36 -12 72 -63
63 -88 -6 -15 -20 -14 -79 3 -15 5 -15 2 4 -30 27 -46 37 -52 52 -32 10 14 12
13 14 -11 2 -46 9 -78 18 -93 5 -8 10 -20 11 -27 1 -7 9 -27 18 -44 21 -42 22
-41 -20 -34 l-36 5 17 -26 c9 -15 12 -23 6 -20 -14 9 11 -50 32 -74 11 -13 12
-20 4 -24 -9 -3 -9 -5 1 -5 6 -1 12 -8 12 -17 0 -8 4 -13 9 -9 6 3 19 -4 29
-16 11 -11 28 -22 38 -24 11 -1 18 -8 16 -15 -2 -8 3 -10 13 -7 8 4 15 2 15
-4 0 -6 5 -7 10 -4 6 3 10 0 10 -7 0 -10 2 -10 9 1 6 9 10 10 16 2 3 -7 15 -9
26 -6 14 5 19 2 19 -11 0 -10 3 -15 6 -11 3 3 16 2 29 -3 18 -7 25 -4 35 16
13 24 40 33 40 14 0 -5 9 -10 19 -10 11 0 22 -4 26 -9 7 -12 162 -8 189 4 17
7 19 5 13 -23 l-6 -31 37 16 c20 8 39 18 42 22 3 3 17 12 33 20 39 21 117 92
117 107 0 8 5 14 10 14 6 0 10 7 10 16 0 8 4 12 10 9 6 -3 7 1 4 9 -4 10 7 29
30 52 20 20 39 47 42 60 3 13 10 24 15 24 5 0 9 5 9 11 0 6 7 17 15 26 8 8 13
19 10 24 -4 5 -1 9 6 9 7 0 10 11 7 30 -3 17 -1 30 3 30 17 0 -18 62 -47 82
-18 12 -41 41 -52 65 -19 41 -19 42 0 40 14 -2 25 13 47 64 l28 66 -38 79 -37
79 -17 -40 c-117 -280 -164 -380 -176 -377 -8 2 -73 24 -146 49 l-132 45 13
27 c42 82 166 405 158 413 -5 5 -45 -78 -97 -202z m-315 -180 c5 0 24 -13 42
-29 39 -33 111 -69 153 -77 16 -2 44 -11 62 -19 27 -13 99 -29 238 -54 27 -5
39 -12 37 -21 -7 -40 -109 -270 -119 -270 -14 0 -563 186 -570 194 -3 3 12 47
35 98 22 51 50 115 61 142 16 35 25 47 37 42 9 -3 20 -6 24 -6z m460 -520
c-14 -34 -16 -34 -50 -15 l-25 13 27 7 c15 4 33 13 39 21 18 22 23 8 9 -26z"/>
<path d="M7241 9900 c-24 -11 -50 -20 -58 -20 -8 0 -11 -5 -7 -12 4 -7 3 -8
-4 -4 -7 4 -27 3 -46 -3 -30 -8 -39 -6 -67 15 -36 26 -49 24 -49 -10 0 -13 -7
-29 -15 -36 -8 -6 -13 -17 -12 -23 1 -6 -5 -11 -13 -12 -8 0 -14 -6 -13 -12 2
-7 -11 -10 -35 -7 -20 3 -47 5 -60 4 -13 0 -36 7 -52 15 -39 20 -40 20 -38
-17 2 -18 -1 -33 -7 -33 -5 0 -15 -3 -21 -7 -6 -4 -60 -10 -119 -14 -68 -5
-101 -10 -88 -15 11 -4 23 -15 26 -23 7 -18 11 -17 -132 -72 l-95 -37 -48 18
c-27 9 -51 15 -54 13 -2 -3 32 -133 77 -289 44 -156 93 -337 109 -402 16 -64
32 -121 35 -127 5 -8 276 -223 413 -327 30 -24 62 -43 70 -43 8 0 83 24 166
54 489 177 852 309 855 312 2 2 -4 48 -13 102 -11 66 -16 158 -16 285 0 171
-2 187 -17 187 -10 0 -68 -8 -130 -17 l-113 -17 -45 32 c-25 18 -50 32 -56 32
-12 0 -6 -433 6 -500 6 -33 5 -36 -27 -48 -19 -6 -44 -21 -56 -32 -11 -11 -26
-20 -32 -20 -5 0 -10 -5 -10 -10 0 -19 45 -27 120 -20 41 4 90 5 108 2 l33 -5
-48 -17 c-26 -10 -93 -35 -148 -55 -108 -40 -272 -99 -453 -164 -63 -23 -123
-41 -134 -41 -20 0 -387 267 -388 283 0 4 8 7 18 7 9 0 62 16 117 36 193 67
391 136 480 166 50 16 104 36 120 43 17 7 44 17 60 21 17 4 35 10 40 14 6 4
28 13 50 20 82 24 126 50 121 68 -3 9 -8 38 -11 64 -8 57 -229 711 -241 715
-5 1 -29 -6 -53 -17z"/>
<path d="M10707 9288 c-25 -62 -49 -120 -52 -129 -5 -13 17 -24 120 -59 69
-24 127 -46 129 -49 2 -3 -18 -60 -45 -126 -26 -66 -48 -125 -49 -132 0 -7 62
-32 139 -57 155 -51 151 -50 151 -35 0 5 -4 7 -10 4 -5 -3 -7 0 -5 8 3 7 18
12 35 11 20 -1 30 3 30 12 0 8 5 14 10 14 6 0 10 -5 10 -10 0 -7 8 -6 23 1 12
7 23 12 25 11 1 -1 8 -2 15 -2 8 0 7 4 -3 11 -12 8 -9 10 13 6 15 -2 30 0 33
4 3 5 15 8 27 8 49 -1 113 33 101 54 -5 9 -4 9 5 1 9 -8 3 -35 -28 -113 -23
-56 -41 -112 -41 -125 0 -21 -82 -230 -108 -276 -5 -8 -31 -67 -57 -130 -27
-63 -56 -123 -67 -133 -10 -10 -18 -23 -18 -29 0 -9 -87 -214 -96 -227 -2 -1
-7 0 -13 3 -6 4 7 40 31 89 22 45 41 86 43 92 1 5 8 23 15 38 11 23 11 33 2
48 -10 15 -9 30 6 74 11 30 16 55 13 55 -3 0 -7 28 -8 61 -2 48 -8 70 -28 98
-14 21 -25 46 -25 57 -1 69 -24 29 -140 -243 -68 -158 -127 -292 -131 -297 -4
-4 -135 37 -291 93 -156 55 -287 101 -291 101 -4 0 -3 -9 3 -20 12 -23 8 -41
-26 -117 -26 -55 -29 -67 -16 -59 5 3 18 -18 30 -46 l21 -50 -22 6 c-66 19
-78 19 -83 -1 -11 -42 -83 -198 -91 -196 -4 1 -61 21 -126 43 -64 22 -123 40
-130 38 -15 -4 -251 83 -255 94 -2 5 -17 15 -33 24 -39 20 -386 150 -439 164
-36 10 -40 14 -34 33 14 46 45 97 59 98 8 1 21 2 28 3 6 1 25 -1 41 -6 16 -4
34 -4 40 1 6 5 30 8 53 6 24 -1 40 2 37 6 -3 5 1 9 8 9 7 1 -15 14 -49 30 -35
16 -63 30 -63 32 0 2 14 3 30 2 17 -1 30 1 30 4 0 4 18 8 40 9 22 0 46 6 54
12 7 6 15 8 19 5 10 -11 58 29 77 65 36 68 57 84 95 78 l34 -6 12 57 c6 31 15
71 18 87 8 35 -9 129 -26 146 -16 15 -12 21 -60 -81 l-40 -84 4 59 c6 85 20
125 44 125 16 0 18 2 7 14 -7 8 -15 14 -18 13 -3 0 -27 9 -53 21 -27 12 -53
22 -58 22 -5 0 -9 4 -9 10 0 5 -3 9 -7 9 -27 -4 -31 4 -28 46 2 24 0 47 -6 50
-5 4 -9 1 -9 -5 0 -7 -10 -1 -22 13 -20 23 -23 24 -36 8 -7 -9 -11 -10 -7 -4
4 9 -3 11 -27 7 -25 -4 -29 -3 -18 5 9 7 10 11 3 11 -6 0 -15 -5 -19 -11 -4
-7 -9 -8 -13 -1 -14 23 -74 14 -85 -14 -5 -13 28 -34 55 -34 17 0 9 -24 -51
-165 -46 -109 -63 -139 -77 -137 -9 2 -84 28 -167 58 -82 29 -151 52 -152 51
-7 -6 101 -119 127 -132 39 -21 48 -19 55 11 l6 25 23 -21 23 -22 -45 -106
c-24 -59 -68 -162 -95 -230 l-51 -123 108 -109 107 -108 -46 5 c-36 4 -47 2
-52 -11 -5 -13 -20 -6 -84 39 -73 51 -94 60 -297 121 -120 36 -248 75 -285 86
l-66 21 -15 81 c-8 44 -27 158 -42 251 -16 94 -31 173 -34 177 -4 4 -230 -76
-504 -177 -274 -102 -505 -185 -515 -185 -10 0 -49 26 -86 58 -38 31 -106 86
-151 122 -204 162 -231 184 -246 200 -10 12 -21 15 -29 10 -11 -7 -3 -58 43
-266 47 -213 61 -262 81 -283 18 -20 31 -56 50 -146 24 -109 25 -121 10 -132
-14 -10 -12 -27 21 -180 53 -249 42 -229 222 -389 87 -77 168 -148 181 -158
24 -19 25 -19 13 2 -20 38 -12 35 50 -20 119 -105 85 -93 714 -248 319 -78
583 -145 587 -149 4 -3 -15 -95 -42 -204 -115 -462 -219 -1051 -275 -1557 -9
-80 -18 -154 -20 -165 -7 -31 -130 -78 -184 -69 -60 10 -206 -47 -219 -85 -13
-36 -122 -76 -180 -66 -33 5 -63 -3 -188 -51 -160 -61 -183 -75 -202 -126 -13
-39 -122 -511 -122 -532 0 -8 7 -19 16 -24 15 -9 13 -25 -21 -178 -21 -93 -41
-176 -45 -184 -4 -8 -24 -89 -45 -180 -47 -211 -43 -200 -67 -200 -38 0 -14
-9 110 -43 l122 -34 8 31 c5 17 22 91 38 163 16 73 34 133 39 133 6 0 111 -29
235 -64 124 -35 240 -67 257 -71 18 -3 35 -10 38 -15 3 -5 -11 -77 -30 -161
-20 -84 -34 -157 -32 -162 2 -8 63 -28 210 -67 36 -10 46 -17 43 -29 -3 -9
-17 -74 -32 -146 -15 -71 -28 -131 -30 -133 -1 -2 -59 8 -129 23 -71 14 -131
23 -136 18 -4 -4 -24 -82 -44 -173 -20 -91 -49 -226 -66 -300 -16 -74 -29
-142 -29 -150 0 -13 -24 -15 -162 -14 -90 1 -195 5 -234 9 -64 6 -72 5 -78
-12 -6 -14 -5 -16 5 -5 17 16 29 15 29 -3 0 -8 5 -15 11 -15 5 0 8 -4 5 -9 -4
-5 0 -11 6 -14 10 -3 10 -9 0 -27 -13 -21 -12 -22 5 -16 14 6 15 5 6 -5 -16
-16 1 -49 25 -49 15 0 15 -2 2 -10 -13 -9 -13 -10 0 -10 13 0 13 -1 0 -10 -12
-8 -12 -10 -1 -10 8 0 11 -3 8 -7 -4 -3 2 -17 14 -29 14 -15 17 -24 9 -29 -8
-5 -6 -12 7 -22 10 -8 12 -12 5 -8 -10 5 -10 1 -1 -19 7 -14 17 -23 23 -19 6
3 8 3 4 -2 -4 -4 -2 -15 5 -23 10 -13 9 -14 -3 -8 -8 4 0 -4 18 -19 31 -25 32
-28 17 -45 -15 -17 -15 -18 2 -16 12 0 18 -6 18 -19 0 -13 7 -19 18 -19 14 2
15 -1 7 -11 -8 -10 -8 -15 1 -21 7 -4 9 -3 5 4 -4 6 1 10 13 9 15 -1 17 -4 9
-14 -8 -10 -4 -18 13 -33 13 -10 20 -19 15 -20 -4 0 0 -8 11 -18 10 -9 14 -13
7 -9 -7 5 -15 3 -20 -4 -4 -8 -3 -9 5 -5 6 4 14 0 17 -8 3 -9 10 -14 14 -11 5
3 11 1 15 -5 4 -6 11 -7 17 -4 7 5 9 -2 4 -20 -4 -18 -3 -25 6 -24 7 2 12 -3
10 -11 -3 -12 -1 -12 14 0 12 9 15 9 10 2 -4 -8 -2 -13 6 -13 11 0 10 -2 0 -9
-11 -7 -11 -9 1 -14 8 -3 20 0 26 6 8 8 9 5 6 -11 -2 -15 0 -19 10 -16 10 4
13 0 10 -16 -4 -19 -2 -20 12 -8 12 9 15 9 9 1 -6 -11 2 -16 24 -15 3 0 11 -7
19 -15 13 -14 8 -15 -50 -9 -76 7 -611 52 -756 63 -73 6 -99 5 -93 -3 6 -6 5
-15 -2 -22 -9 -9 -7 -12 11 -12 21 0 22 -2 10 -17 -10 -11 -10 -14 -1 -9 15 9
16 -6 2 -20 -8 -8 -6 -15 6 -25 12 -9 15 -10 10 -1 -4 7 -2 12 4 12 6 0 9 4 6
8 -3 5 1 9 9 9 10 0 11 -5 4 -19 -6 -12 -6 -18 0 -18 16 0 1 -28 -17 -33 -12
-3 -9 -5 6 -6 18 -1 23 -6 20 -23 -2 -13 2 -22 9 -21 12 3 12 -15 -1 -36 -7
-10 -5 -12 4 -6 9 5 10 2 5 -14 -4 -14 -2 -21 7 -21 10 0 14 -12 14 -37 -1
-30 3 -38 19 -41 11 -2 25 -9 30 -14 7 -8 6 -8 -4 -3 -11 6 -10 2 2 -15 13
-19 14 -27 4 -39 -10 -12 -9 -13 2 -6 11 6 13 4 8 -11 -7 -18 -7 -18 8 0 14
18 15 3 15 -147 0 -125 3 -169 13 -172 11 -4 328 -39 622 -70 410 -42 552 -62
572 -78 7 -5 20 -7 28 -3 8 3 15 1 15 -4 0 -5 9 -7 21 -5 18 4 19 2 8 -11 -10
-12 -9 -18 6 -32 10 -10 14 -11 10 -3 -5 9 -3 12 4 10 7 -3 12 -8 11 -13 -3
-13 21 -25 43 -21 13 3 17 0 14 -9 -7 -17 30 -29 40 -14 3 6 1 8 -5 4 -6 -3
-13 -3 -16 2 -2 4 6 8 18 8 24 0 27 -10 12 -34 -9 -15 -2 -25 19 -28 8 -1 13
2 9 7 -3 5 -11 6 -17 3 -7 -4 -8 -3 -4 1 9 11 37 16 36 7 -5 -32 -7 -32 925
-32 l925 0 -4 23 c-4 18 -2 20 8 7 7 -8 18 -16 26 -18 15 -3 53 27 46 37 -9
15 13 30 47 33 29 1 35 6 33 20 -2 10 1 18 7 18 6 0 21 8 32 17 12 10 15 11 9
3 -7 -8 -13 -17 -13 -20 0 -10 35 -5 38 5 7 20 25 35 42 35 10 0 21 6 23 13 4
9 6 9 6 0 1 -7 5 -13 10 -13 5 0 8 8 7 17 -3 19 16 43 33 43 6 0 11 5 11 10 0
6 12 10 26 10 15 0 33 8 41 18 14 16 14 16 8 -3 -5 -17 -3 -17 19 4 14 14 24
27 21 29 -9 9 17 32 35 32 10 0 21 6 23 13 4 9 6 9 6 0 1 -7 5 -13 9 -13 5 0
7 13 6 30 -1 17 5 34 15 42 14 12 15 11 2 -4 -11 -16 -11 -18 2 -18 8 0 17 7
21 15 3 8 14 15 25 15 14 0 19 6 16 19 -2 12 5 23 21 31 13 8 24 17 24 22 0 4
8 8 19 8 15 0 18 6 16 30 -1 17 0 29 2 26 3 -3 18 1 34 10 16 8 32 14 36 14 5
0 8 9 7 19 -1 12 5 18 15 16 9 -1 15 -8 13 -15 -1 -6 3 -8 9 -5 8 5 8 10 0 18
-17 17 -13 24 19 37 16 7 27 16 24 21 -3 5 5 13 18 18 l23 10 -25 -1 c-14 0
-68 4 -120 11 -199 23 -265 31 -278 31 -10 0 -13 40 -11 195 1 107 6 195 10
195 5 0 9 -15 9 -34 0 -28 4 -34 20 -33 10 1 17 3 15 6 -3 2 3 13 12 24 13 15
14 18 3 12 -8 -4 -4 3 10 16 15 15 28 21 32 14 7 -9 12 6 10 27 -1 3 4 11 12
17 9 8 13 7 13 -4 0 -8 -4 -12 -9 -9 -13 8 -9 -3 6 -15 11 -9 13 -6 11 19 -2
18 5 38 16 51 10 12 16 25 14 30 -3 4 -1 10 5 14 6 4 8 11 4 16 -3 5 -2 9 3 8
10 -3 63 19 63 25 0 3 -8 2 -17 -1 -17 -7 -17 -5 -2 17 9 14 19 23 21 20 7 -7
38 20 38 34 0 6 -5 3 -11 -7 -6 -9 -15 -15 -20 -11 -6 3 -2 12 10 21 12 8 18
19 14 26 -4 8 -1 7 9 -1 14 -11 16 -10 14 5 -2 10 4 24 13 30 14 11 14 14 1
23 -12 7 -12 10 -1 10 7 0 11 6 7 15 -5 14 13 17 24 4 3 -4 11 -1 18 7 11 12
9 13 -10 10 -13 -2 -31 1 -41 6 -10 5 -30 10 -45 12 -15 1 -26 8 -24 14 1 7
-3 12 -9 12 -8 0 -8 5 1 15 7 8 9 15 4 16 -5 0 1 4 13 9 23 9 61 70 43 70 -5
0 0 18 11 40 12 22 25 37 30 34 5 -3 6 2 3 10 -3 9 -2 16 3 16 4 0 14 9 21 21
11 17 11 20 0 14 -7 -3 -5 0 5 8 9 8 17 20 17 26 0 7 12 29 28 49 15 20 21 33
15 28 -8 -4 -13 -2 -13 7 0 8 7 17 15 21 8 3 15 9 14 13 -1 4 0 10 1 13 5 14
12 49 16 80 2 19 7 48 10 64 6 23 4 27 -7 21 -11 -7 -12 -6 -2 6 10 12 10 18
0 29 -9 10 -9 11 1 6 7 -4 12 -1 12 8 0 8 -6 16 -12 19 -10 3 -10 7 0 19 9 11
10 18 2 23 -6 4 -8 20 -5 38 8 46 -5 57 -68 66 -32 4 -60 11 -64 14 -10 11
-12 56 -3 62 5 3 5 16 0 31 -6 14 -8 30 -5 34 3 5 1 28 -4 51 -6 26 -6 49 -1
60 5 9 6 19 3 23 -14 14 -11 38 3 32 10 -4 13 -2 8 6 -11 18 -12 178 -2 178 5
0 6 5 3 10 -4 6 -12 7 -18 3 -9 -5 -9 -3 -1 8 13 16 12 57 -2 67 -13 10 -13
72 0 72 6 0 4 6 -5 13 -9 7 -16 24 -15 37 1 14 -2 31 -7 38 -6 7 -6 12 0 12
13 0 4 51 -11 65 -6 6 -20 17 -31 23 -17 10 -14 11 22 9 24 -2 44 1 45 5 2 5
24 11 48 14 25 3 62 10 84 15 21 6 40 8 43 6 2 -3 21 -1 41 4 20 5 80 14 132
20 52 6 115 13 140 15 25 3 70 6 101 7 31 1 62 7 70 14 9 7 42 10 89 7 41 -2
210 -4 375 -5 275 -1 305 0 358 18 31 11 57 17 57 13 0 -4 -40 -55 -89 -114
l-89 -106 -6 -323 c-7 -364 -26 -2255 -26 -2564 l0 -203 384 0 383 0 7 473 c4
259 13 994 21 1632 8 638 17 1330 21 1539 l6 378 -34 -38 c-38 -43 -403 -474
-430 -507 -14 -18 -21 -20 -44 -12 -37 13 -40 29 -9 45 25 13 25 15 25 132 0
65 -3 118 -7 118 -5 0 -37 -18 -73 -40 -36 -21 -79 -46 -97 -54 -17 -8 -34
-24 -38 -35 -7 -23 -17 -26 -45 -11 -19 10 -52 14 -195 25 -156 11 -295 28
-295 35 0 16 36 20 184 20 107 0 168 4 202 15 27 8 63 15 81 15 25 0 31 4 27
15 -5 11 1 15 20 15 14 0 26 4 26 9 0 11 -40 19 -170 34 l-105 12 -1 40 c-1
83 24 236 41 249 18 13 32 143 50 464 6 112 5 122 -11 122 -15 0 -16 9 -11 98
4 53 7 116 7 140 0 31 4 42 15 42 13 0 15 23 15 145 0 118 -3 145 -14 145 -11
0 -15 24 -20 103 -3 56 -10 192 -16 302 -24 439 -123 1193 -162 1231 -7 7 -70
25 -140 39 -127 27 -128 27 -365 17 -131 -6 -239 -9 -241 -8 -5 5 36 94 46
100 5 3 33 64 63 136 l53 131 36 -6 37 -6 31 63 c17 35 47 105 68 156 34 87
36 96 25 134 -7 22 -16 37 -21 32 -4 -5 -32 -66 -60 -136 -29 -71 -57 -128
-62 -128 -20 0 -82 33 -70 37 6 3 12 10 12 16 0 6 8 19 18 30 9 10 17 27 17
36 1 9 12 34 26 56 14 22 32 57 40 78 12 34 17 38 43 35 28 -3 30 0 73 102 30
74 41 113 37 132 -6 28 14 100 26 93 4 -3 13 8 20 23 l12 27 15 -37 c10 -25
24 -40 45 -47 17 -6 32 -10 32 -9 1 2 10 17 22 33 11 17 44 89 73 161 50 126
52 133 38 165 l-14 34 -19 -45 c-11 -25 -36 -82 -55 -127 -19 -46 -37 -83 -41
-83 -11 0 0 97 16 131 4 10 6 23 5 30 -1 8 1 21 5 30 11 25 13 72 4 91 -6 12
6 52 37 130 25 62 45 122 45 135 0 12 -18 86 -40 164 -22 78 -38 144 -36 147
3 2 26 -3 52 -12 26 -9 51 -16 55 -16 4 0 2 19 -5 43 -11 40 -15 43 -76 65
-36 12 -70 24 -77 27 -8 3 -3 26 18 79 25 61 29 80 21 103 l-10 28 -24 -53
-23 -52 -24 70 c-15 44 -28 67 -34 61 -10 -10 -84 -174 -164 -363 -34 -79 -51
-108 -64 -108 -9 0 -19 -3 -22 -7 -2 -5 -3 -3 -1 3 1 6 -23 21 -54 34 -32 13
-61 26 -65 30 -4 4 8 19 27 34 71 54 118 185 82 225 -8 9 -21 28 -29 44 l-14
27 -33 -77 c-18 -43 -39 -92 -46 -110 l-14 -32 -147 50 c-144 48 -199 58 -112
20 46 -20 108 -78 72 -68 -10 3 -46 13 -81 23 -50 13 -62 20 -57 33 4 9 14 36
22 61 9 25 26 69 39 99 18 39 21 57 13 62 -9 5 -9 15 0 40 6 18 9 35 6 38 -3
3 -8 -5 -12 -17 -9 -36 -45 -37 -151 -3 -54 17 -103 31 -108 31 -6 0 -31 -51
-57 -112z m543 -282 c0 -23 -15 -27 -51 -14 -34 12 -34 12 -9 19 41 12 60 10
60 -5z m-1824 -339 c4 -4 -113 -286 -122 -296 -4 -4 -266 89 -276 98 -4 4 20
72 54 153 l62 146 139 -48 c77 -27 141 -51 143 -53z m2038 -543 c9 -3 16 -12
16 -19 0 -16 -99 -256 -111 -269 -7 -8 -69 10 -69 21 0 3 25 65 56 139 58 136
65 145 108 128z m-2218 -671 c3 3 20 1 37 -5 18 -5 39 -10 47 -11 8 -2 25 -8
36 -14 12 -7 40 -15 63 -19 22 -4 41 -9 41 -13 0 -3 -24 -80 -54 -171 -50
-156 -54 -165 -77 -162 -23 3 -23 3 -5 -11 18 -13 18 -18 -19 -143 -21 -71
-40 -130 -41 -132 -3 -5 -224 55 -231 62 -4 3 14 69 39 145 42 129 44 140 27
148 -17 8 -16 12 7 78 64 187 98 264 111 253 8 -6 16 -8 19 -5z m942 -275 c52
-18 91 -36 89 -42 -31 -81 -96 -310 -90 -316 4 -4 62 -22 128 -39 66 -18 123
-36 127 -39 4 -4 -9 -59 -27 -122 -19 -63 -35 -119 -35 -124 0 -25 20 17 55
117 27 73 44 107 55 107 23 0 152 -38 163 -49 11 -11 -52 -241 -68 -248 -7 -2
-62 10 -122 27 -59 17 -214 59 -343 92 -129 33 -251 65 -271 70 l-37 10 25 61
c14 34 31 77 39 95 8 18 14 38 14 45 0 7 9 23 21 36 20 21 20 23 3 35 -17 13
-15 21 31 142 79 211 69 194 112 183 21 -6 80 -24 131 -41z m583 -1513 c18
-254 18 -1073 1 -1310 -14 -194 -40 -492 -50 -580 l-7 -59 -60 -18 c-64 -20
-75 -30 -75 -68 0 -26 -1 -26 -67 -22 -38 2 -69 5 -70 6 -2 1 -9 43 -16 93
-10 65 -10 97 -3 110 6 10 9 44 8 75 -3 55 -3 57 25 60 l28 3 12 165 c45 628
54 719 99 1028 44 307 142 771 154 736 4 -11 14 -109 21 -219z m-1283 164 c61
-12 112 -25 112 -30 0 -4 -7 -39 -15 -78 -19 -92 -69 -390 -95 -570 -20 -137
-20 -144 -3 -156 27 -20 106 -35 190 -37 24 0 47 -6 52 -12 8 -10 -25 -355
-36 -366 -4 -5 -29 -7 -343 -30 -138 -10 -170 -15 -194 -32 l-29 -21 -251 48
c-138 26 -254 49 -257 51 -8 4 44 480 54 490 2 2 41 -3 88 -10 84 -14 156 -13
170 1 4 5 15 62 24 128 18 136 65 418 69 423 2 1 61 -8 132 -21 l129 -23 17
85 c38 189 39 192 56 187 9 -3 68 -15 130 -27z m2334 -1840 c19 -10 20 -19 16
-107 -2 -54 -8 -103 -12 -111 -8 -12 -60 -13 -325 -7 -400 8 -491 14 -491 32
0 8 6 14 13 15 6 0 2 5 -10 11 -20 10 -22 16 -17 77 3 36 7 71 9 76 1 6 38 10
84 10 44 0 81 2 81 5 0 11 632 10 652 -1z m-370 -289 l78 0 0 -32 c0 -59 0
-59 -196 -56 -155 1 -184 -1 -204 -15 -14 -10 -43 -17 -68 -17 l-43 0 6 53
c11 87 -5 81 182 74 91 -4 201 -7 245 -7z m-1678 -567 c2 -10 7 -79 11 -153 3
-74 8 -146 11 -160 l4 -25 98 6 c53 4 129 7 168 8 l71 1 12 -167 c6 -93 11
-180 11 -195 l0 -28 -119 0 c-65 0 -140 -3 -166 -6 l-47 -7 7 -151 c4 -83 8
-167 9 -186 1 -29 10 -49 18 -37 1 2 -10 171 -18 270 -6 66 5 105 27 91 6 -3
61 -5 123 -5 80 1 117 -3 124 -11 15 -18 30 -115 38 -241 6 -101 8 -107 24
-92 16 15 18 12 23 -47 4 -35 9 -110 13 -168 6 -99 4 -109 -20 -164 l-26 -59
-95 7 c-159 11 -186 16 -195 40 -8 19 -9 18 -9 -7 -1 -27 -3 -28 -38 -23 -21
3 -168 17 -328 32 -159 14 -299 29 -310 34 -11 5 -71 14 -132 20 -129 12 -140
15 -148 40 -7 22 -24 303 -19 309 2 2 43 4 91 4 l88 0 -85 6 -85 6 0 115 0
115 65 3 c76 4 135 -11 145 -36 3 -9 8 -59 11 -109 4 -84 2 -93 -13 -94 -10
-1 -1 -6 20 -11 21 -6 39 -9 41 -7 2 2 -2 80 -7 173 -7 125 -6 170 2 175 7 5
10 26 7 57 -3 27 -8 103 -11 169 -4 74 -11 123 -18 127 -8 5 -16 69 -22 178
l-10 170 30 5 c17 2 71 7 120 10 92 5 169 11 335 24 159 13 168 13 174 -6z
m-635 -485 c1 -57 6 -132 10 -168 5 -36 7 -68 5 -72 -2 -3 -71 -7 -153 -7
l-149 -2 -6 63 c-3 35 -8 109 -12 165 l-6 101 73 6 c89 7 152 12 200 14 l36 2
2 -102z m-1377 -329 c23 -12 23 -62 -1 -151 l-17 -68 23 0 c19 0 22 -4 18 -22
-2 -13 -12 -54 -20 -93 -24 -107 -45 -164 -65 -175 -27 -14 -251 0 -257 16 -3
8 0 35 6 61 5 27 20 92 32 146 l21 97 38 0 c32 0 36 3 35 23 -1 12 4 39 11 60
7 20 11 37 8 37 -9 0 29 65 45 76 16 13 95 8 123 -7z m2580 -231 c1 -40 2 -95
3 -123 1 -40 -7 -69 -40 -143 -41 -90 -43 -92 -48 -60 -3 18 -9 94 -12 168
l-6 135 43 48 c23 26 46 47 50 47 5 0 9 -33 10 -72z m641 -213 c-7 -21 -12
-19 -10 4 0 11 5 18 9 15 4 -3 5 -11 1 -19z m-3950 -192 c-3 -7 -6 -13 -8 -13
-2 0 -5 6 -8 13 -3 8 1 14 8 14 7 0 11 -6 8 -14z m-316 -918 c-5 -39 -16 -40
-14 -2 1 19 5 33 10 30 4 -2 6 -15 4 -28z m789 -500 c1 -8 -2 -15 -7 -15 -5 0
-9 10 -9 22 0 23 12 17 16 -7z m602 -134 c2 -1 0 -6 -3 -11 -5 -8 -11 -7 -20
0 -8 7 -20 8 -26 4 -8 -4 -9 -3 -5 4 6 10 22 10 54 3z"/>
<path d="M10150 6803 c0 -10 -3 -29 -6 -43 -4 -18 -1 -16 10 9 19 39 20 51 6
51 -5 0 -10 -8 -10 -17z"/>
<path d="M9623 2773 c9 -2 23 -2 30 0 6 3 -1 5 -18 5 -16 0 -22 -2 -12 -5z"/>
<path d="M9448 2763 c6 -2 18 -2 25 0 6 3 1 5 -13 5 -14 0 -19 -2 -12 -5z"/>
<path d="M9288 2753 c18 -2 45 -2 60 0 15 2 0 4 -33 4 -33 0 -45 -2 -27 -4z"/>
<path d="M7603 2123 c9 -2 23 -2 30 0 6 3 -1 5 -18 5 -16 0 -22 -2 -12 -5z"/>
<path d="M7678 2113 c6 -2 18 -2 25 0 6 3 1 5 -13 5 -14 0 -19 -2 -12 -5z"/>
<path d="M11386 9285 c-9 -26 -7 -32 5 -12 6 10 9 21 6 23 -2 3 -7 -2 -11 -11z"/>
<path d="M10308 8621 c-27 -26 -72 -56 -80 -53 -5 1 -8 -2 -8 -7 0 -5 -9 -12
-19 -16 -11 -3 -18 -12 -15 -19 3 -7 -1 -20 -9 -27 -7 -8 -12 -20 -9 -27 2 -8
-3 -10 -15 -6 -16 6 -16 5 2 -9 19 -14 19 -16 3 -22 -30 -12 -21 -24 36 -51
l54 -26 -21 -36 c-12 -20 -26 -40 -32 -44 -6 -5 -5 -8 4 -8 11 0 10 -4 -3 -19
-10 -11 -15 -24 -12 -30 4 -5 0 -29 -8 -52 -29 -85 -7 -48 45 77 32 75 61 129
70 131 14 4 91 174 101 222 2 7 -12 18 -32 25 -30 11 -38 10 -52 -3z"/>
<path d="M10840 8537 c0 -7 122 -48 127 -43 3 2 -20 12 -49 21 -29 10 -59 20
-65 23 -7 2 -13 2 -13 -1z"/>
<path d="M7080 2906 c0 -3 -16 -74 -35 -157 -19 -84 -35 -159 -35 -166 0 -23
26 -14 28 10 1 12 17 88 35 170 26 113 31 147 20 147 -7 0 -13 -2 -13 -4z"/>
<path d="M6850 2592 c108 -31 150 -40 150 -32 0 5 -33 15 -72 24 -112 24 -150
28 -78 8z"/>
<path d="M10890 2559 c0 -5 5 -7 10 -4 6 3 10 8 10 11 0 2 -4 4 -10 4 -5 0
-10 -5 -10 -11z"/>
<path d="M7498 2463 c7 -3 16 -2 19 1 4 3 -2 6 -13 5 -11 0 -14 -3 -6 -6z"/>
<path d="M6681 2204 c0 -11 3 -14 6 -6 3 7 2 16 -1 19 -3 4 -6 -2 -5 -13z"/>
<path d="M6671 2164 c0 -11 3 -14 6 -6 3 7 2 16 -1 19 -3 4 -6 -2 -5 -13z"/>
<path d="M6651 2074 c0 -11 3 -14 6 -6 3 7 2 16 -1 19 -3 4 -6 -2 -5 -13z"/>
<path d="M6631 1984 c0 -11 3 -14 6 -6 3 7 2 16 -1 19 -3 4 -6 -2 -5 -13z"/>
<path d="M6621 1944 c0 -11 3 -14 6 -6 3 7 2 16 -1 19 -3 4 -6 -2 -5 -13z"/>
<path d="M10756 1242 c-2 -4 4 -8 14 -8 10 0 16 4 14 8 -3 4 -9 8 -14 8 -5 0
-11 -4 -14 -8z"/>
<path d="M10836 523 c-6 -14 -5 -15 5 -6 7 7 10 15 7 18 -3 3 -9 -2 -12 -12z"/>
</g>
</svg>
