<?xml version="1.0" encoding="utf-8"?>
<!-- Generator: Adobe Illustrator 27.0.0, SVG Export Plug-In . SVG Version: 6.00 Build 0)  -->
<svg version="1.0" xmlns="http://www.w3.org/2000/svg" xmlns:xlink="http://www.w3.org/1999/xlink" x="0px" y="0px"
	 viewBox="0 0 318 42" style="enable-background:new 0 0 318 42;" xml:space="preserve">
<style type="text/css">
	.st0{display:none;}
	.st1{fill:#FFFFFF;}
	.st2{fill:#FF0000;}
	.st3{fill:#3366CC;}
	.st4{clip-path:url(#SVGID_00000001656214221099231430000017391716471183839124_);}
	.st5{fill:url(#SVGID_00000090975307807130394000000001752346664163553945_);}
	.st6{fill:url(#SVGID_00000106138765332594375920000007492472872852124073_);}
	.st7{fill:url(#SVGID_00000114048739696207970250000002290876583942010015_);}
	.st8{fill:url(#SVGID_00000128443047355257955560000004351408063208594586_);}
	.st9{fill:url(#SVGID_00000093881978817609033460000003023649789103212955_);}
	.st10{fill:url(#SVGID_00000163073546172318316270000009596262695116231864_);}
	.st11{fill:url(#SVGID_00000150076398095107842050000009857794537374832264_);}
	.st12{fill:url(#SVGID_00000032640977014214035050000008822361911608141235_);}
	.st13{fill:url(#SVGID_00000095336687771201085050000005377433152020964252_);}
	.st14{fill:url(#SVGID_00000116939217089245702860000009098271405563467930_);}
	.st15{fill:url(#SVGID_00000145769680708467927000000001270967064234879923_);}
	.st16{fill:url(#SVGID_00000142167397038392724360000013936348293520042133_);}
	.st17{fill:url(#SVGID_00000023253543379772043740000011249518376570274438_);}
	.st18{fill:url(#SVGID_00000158006541600364513620000011404448043505679534_);}
	.st19{fill:url(#SVGID_00000153671507475075324140000012376993282057458591_);}
	.st20{fill:url(#SVGID_00000018916373419051424720000009704220022988315264_);}
	.st21{fill:url(#SVGID_00000023240785040101005750000016067989179453165957_);}
	.st22{fill:url(#SVGID_00000129897438868321443900000003537673592652648377_);}
	.st23{fill:url(#SVGID_00000013896641713051822570000016131961207503545276_);}
	.st24{fill:url(#SVGID_00000156580301022527413810000009886405476900760254_);}
	.st25{fill:url(#SVGID_00000027562170516482607290000009797360176338905996_);}
	.st26{fill:url(#SVGID_00000161590499000355071220000013977922612368874416_);}
	.st27{fill:url(#SVGID_00000016777977033062331760000012993416845635110299_);}
	.st28{fill:url(#SVGID_00000057828697904661743460000013976028902990432409_);}
	.st29{fill:url(#SVGID_00000067224746524041250040000011127873982144774560_);}
	.st30{fill:url(#SVGID_00000172436340829982989570000013329010763081706664_);}
	.st31{fill:url(#SVGID_00000039125701604107641300000008753913868046514359_);}
	.st32{fill:url(#SVGID_00000173145605859105208820000000314277735518615219_);}
	.st33{fill:url(#SVGID_00000159458269991911832880000007700107605275626625_);}
	.st34{fill:url(#SVGID_00000164501339061496394920000004959760748625187481_);}
	.st35{fill:url(#SVGID_00000178168086905893291900000010979161587103477380_);}
	.st36{fill:url(#SVGID_00000094607803736085942910000010151758410902925714_);}
	.st37{fill:url(#SVGID_00000143595324196120620550000010954204394938122395_);}
	.st38{fill:url(#SVGID_00000131337066389861039320000001781863833503018393_);}
	.st39{fill:url(#SVGID_00000140730117763082878750000000701037310649399966_);}
	.st40{fill:url(#SVGID_00000098902004638434131660000013289699867461805715_);}
	.st41{fill:url(#SVGID_00000047056725096742250980000000029726512384361149_);}
	.st42{fill:url(#SVGID_00000019667959647037092500000001397819281772431787_);}
	.st43{fill:url(#SVGID_00000042734981116024321120000012286349291796531861_);}
	.st44{fill:url(#SVGID_00000152242831469205439830000015642310816944286613_);}
	.st45{fill:url(#SVGID_00000053547238598570006870000010926022976825720452_);}
	.st46{fill:url(#SVGID_00000009573996001390000180000012771296869403557303_);}
	.st47{fill:url(#SVGID_00000128476278398831377350000014859152603968217778_);}
	.st48{fill:url(#SVGID_00000059998058411157141850000003419722863235635599_);}
	.st49{fill:url(#SVGID_00000005977618390317745170000006643543672491120559_);}
	.st50{fill:url(#SVGID_00000026877062632765219140000006550050548537178515_);}
	.st51{fill:url(#SVGID_00000144337210986896166230000006061928630859749806_);}
	.st52{fill:url(#SVGID_00000023970072292110142890000006991060600351943084_);}
	.st53{fill:url(#SVGID_00000170984143583110708390000014132086448853876651_);}
	.st54{fill:url(#SVGID_00000022532497272451874090000016724447310362906549_);}
	.st55{fill:url(#SVGID_00000088814535786811955000000013311881366764818606_);}
	.st56{fill:url(#SVGID_00000180361968429493777570000014892771706252001667_);}
	.st57{fill:url(#SVGID_00000063632375283609548130000015684146005045695654_);}
	.st58{fill:url(#SVGID_00000047054594588056958600000011722633535023288471_);}
	.st59{fill:url(#SVGID_00000171695999381644743120000004694136584034763430_);}
	.st60{opacity:0.3;clip-path:url(#SVGID_00000001656214221099231430000017391716471183839124_);}
	.st61{fill:#303030;}
	.st62{fill:#3479E8;}
	.st63{clip-path:url(#SVGID_00000054257774969668539020000002561335630664711357_);}
	.st64{fill:url(#SVGID_00000090993793566764468510000000425655995675143350_);}
	.st65{fill:url(#SVGID_00000142155546222753880230000003872380055242303417_);}
	.st66{fill:url(#SVGID_00000089575128897767141830000000602057586854177213_);}
	.st67{fill:url(#SVGID_00000181786954552957535660000014487422979680675474_);}
	.st68{fill:url(#SVGID_00000044178988843015979480000014606150198870542005_);}
	.st69{fill:url(#SVGID_00000023258884091097489120000015138617815566858895_);}
	.st70{fill:url(#SVGID_00000036957399516506763080000009136804227861670073_);}
	.st71{fill:url(#SVGID_00000035498900540735358950000010055666125893109407_);}
	.st72{fill:url(#SVGID_00000049184910864368528150000013533741242210197924_);}
	.st73{fill:url(#SVGID_00000042723487441007267170000013413441671090005946_);}
	.st74{fill:url(#SVGID_00000070086250876535843940000004467964479879260329_);}
	.st75{fill:url(#SVGID_00000085955913823159826100000002387339081270866319_);}
	.st76{fill:url(#SVGID_00000081643101967262115470000002396655355594808986_);}
	.st77{fill:url(#SVGID_00000041292422954915680090000004331883339225974684_);}
	.st78{fill:url(#SVGID_00000090274726644320372650000010298244849299556030_);}
	.st79{fill:url(#SVGID_00000165944404882212032760000006224657364664346793_);}
	.st80{fill:url(#SVGID_00000141443712502344173250000004140029587899221431_);}
	.st81{fill:url(#SVGID_00000181073057470588908810000005497732407720145590_);}
	.st82{fill:url(#SVGID_00000078732247896193624540000016477294630414946988_);}
	.st83{fill:url(#SVGID_00000128473558713828695500000002873975468866068634_);}
	.st84{fill:url(#SVGID_00000070837464532680323210000005847675803962597033_);}
	.st85{fill:url(#SVGID_00000003802340031345554260000003440626122739041411_);}
	.st86{fill:url(#SVGID_00000115482283226117879730000011848233209677427106_);}
	.st87{fill:url(#SVGID_00000039120129772677609870000000783002738572643985_);}
	.st88{fill:url(#SVGID_00000040539162751941309070000003096772865195615664_);}
	.st89{fill:url(#SVGID_00000005240184819152548800000011490680992597216385_);}
	.st90{fill:url(#SVGID_00000093136437754610860080000000350963709116246695_);}
	.st91{fill:url(#SVGID_00000169527129108553969500000017856210369558506890_);}
	.st92{fill:url(#SVGID_00000088853750772952621170000007083776889911397248_);}
	.st93{fill:url(#SVGID_00000178926840394486795730000011610419122461854888_);}
	.st94{fill:url(#SVGID_00000126282691590343249140000001867706798794272443_);}
	.st95{fill:url(#SVGID_00000090977858775657067540000018311341587878022058_);}
	.st96{fill:url(#SVGID_00000061436310737831759440000009643622997157381001_);}
	.st97{fill:url(#SVGID_00000035496268434484283390000002648520175814844047_);}
	.st98{fill:url(#SVGID_00000137848711078572244660000003631421425756602525_);}
	.st99{fill:url(#SVGID_00000039851081061812681450000010688651921894205070_);}
	.st100{fill:url(#SVGID_00000085948897782535266950000000552273088110656175_);}
	.st101{fill:url(#SVGID_00000005234024367469300110000008347701881631090825_);}
	.st102{fill:url(#SVGID_00000021838370949646138730000006135976295528539528_);}
	.st103{fill:url(#SVGID_00000065790474516538009970000009211886518233192891_);}
	.st104{fill:url(#SVGID_00000085960566627197193030000007615360424306172288_);}
	.st105{fill:url(#SVGID_00000172427817501407338050000001077264016713922470_);}
	.st106{fill:url(#SVGID_00000045604208866725156170000002424128107698571433_);}
	.st107{fill:url(#SVGID_00000076590698150768320020000007039002493875891379_);}
	.st108{fill:url(#SVGID_00000088818430585681664520000012096246622589917619_);}
	.st109{fill:url(#SVGID_00000044151826042786078880000003763045208735938717_);}
	.st110{fill:url(#SVGID_00000062897271991751983730000001720391989817717170_);}
	.st111{fill:url(#SVGID_00000167361638870460463040000009589349808380625816_);}
	.st112{fill:url(#SVGID_00000014602652931220440410000003720364431346513081_);}
	.st113{fill:url(#SVGID_00000087380424434005914340000006240557556189420180_);}
	.st114{fill:url(#SVGID_00000107562911955385615330000012962844303861734811_);}
	.st115{fill:url(#SVGID_00000016036191518469698130000002523901371408437653_);}
	.st116{fill:url(#SVGID_00000052808761700669804470000010441572152298759574_);}
	.st117{fill:url(#SVGID_00000141419611871160709680000006621654345033186973_);}
	.st118{fill:url(#SVGID_00000127750944089127400750000005741517986978577581_);}
	.st119{opacity:0.3;clip-path:url(#SVGID_00000054257774969668539020000002561335630664711357_);}
</style>
<g id="Orignal" class="st0">
</g>
<g id="Vector">
</g>
<g id="V-Copy">
	<path class="st3" d="M314.5,42H3.5C1.57,42,0,40.43,0,38.5V3.5C0,1.57,1.57,0,3.5,0H314.5c1.93,0,3.5,1.57,3.5,3.5V38.5
		C318,40.43,316.43,42,314.5,42z"/>
	<g>
		<path class="st1" d="M129.74,16.65h4.34c1.27,0,2.27,0.29,3.02,0.86c0.74,0.57,1.12,1.33,1.12,2.27c0,0.96-0.36,1.71-1.09,2.25
			s-1.75,0.8-3.06,0.8h-2.34v3.66h-1.97V16.65z M134.08,21.47c0.7,0,1.24-0.14,1.6-0.43c0.37-0.29,0.55-0.7,0.55-1.24
			c0-0.53-0.19-0.96-0.56-1.27c-0.37-0.32-0.89-0.48-1.54-0.49h-2.42v3.43H134.08z"/>
		<path class="st1" d="M143.6,16.65c1.31,0,2.32,0.25,3.03,0.76s1.07,1.25,1.07,2.21c0,0.66-0.18,1.21-0.55,1.65
			c-0.37,0.44-0.88,0.79-1.53,1.02l2.55,4.1v0.09h-2.11l-2.27-3.79h-2.19v3.79h-1.97v-9.84H143.6z M141.58,21.33h2.02
			c0.66,0,1.18-0.15,1.56-0.44c0.37-0.29,0.56-0.69,0.56-1.19c0-0.53-0.17-0.94-0.52-1.22c-0.34-0.29-0.86-0.44-1.54-0.45h-2.08
			V21.33z"/>
		<path class="st1" d="M149.47,18.79c0.39-0.74,0.94-1.3,1.65-1.69c0.71-0.39,1.53-0.58,2.45-0.58c0.92,0,1.74,0.19,2.46,0.58
			c0.71,0.39,1.26,0.94,1.65,1.66c0.39,0.72,0.59,1.57,0.59,2.52v0.55c0,0.97-0.19,1.81-0.58,2.54c-0.38,0.73-0.93,1.29-1.65,1.68
			c-0.71,0.39-1.53,0.59-2.46,0.59c-0.92,0-1.74-0.19-2.45-0.59c-0.72-0.39-1.27-0.95-1.66-1.67c-0.39-0.72-0.59-1.55-0.6-2.49
			v-0.56C148.88,20.37,149.08,19.52,149.47,18.79z M150.85,21.83c0,1.08,0.24,1.92,0.73,2.51c0.49,0.59,1.16,0.88,2.02,0.88
			c0.87,0,1.54-0.29,2.01-0.86c0.47-0.58,0.71-1.42,0.71-2.53v-0.51c0-1.09-0.24-1.93-0.71-2.51c-0.48-0.58-1.15-0.87-2.02-0.87
			c-0.85,0-1.52,0.29-2,0.87c-0.48,0.58-0.73,1.4-0.73,2.46V21.83z"/>
		<path class="st1" d="M159.93,26.5v-9.84h7.2v1.38h-5.23v2.93h4.56v1.37h-4.56v4.17H159.93z"/>
		<path class="st1" d="M170.44,26.5h-1.96v-9.84h1.96V26.5z"/>
		<path class="st1" d="M174.51,25.13h5.14v1.37h-7.11v-9.84h1.97V25.13z"/>
		<path class="st1" d="M188.2,16.65v1.38h-5.39v2.72h4.65v1.35h-4.65v3.03h5.44v1.37h-7.41v-9.84H188.2z"/>
	</g>
	<g>
		<g>
			<path class="st1" d="M304.25,20.92v7.06c0,1.37-1.2,2.47-2.68,2.47H286.3c-1.47,0-2.68-1.1-2.68-2.47v-14.1
				c0-1.37,1.21-2.47,2.68-2.47h7.83v2.21h-7.83c-0.16,0-0.29,0.12-0.29,0.27v14.1c0,0.15,0.13,0.27,0.29,0.27h15.27
				c0.16,0,0.29-0.12,0.29-0.27v-7.06H304.25z"/>
		</g>
		<g>
			<path class="st1" d="M304.25,11.41v7.54h-2.39v-3.77l-10.17,9.4c-0.24,0.22-0.54,0.32-0.84,0.32s-0.61-0.1-0.84-0.32
				c-0.46-0.43-0.46-1.13,0-1.56l10.17-9.4h-3.91v-2.21H304.25z"/>
		</g>
	</g>
	<g>
		<defs>
			<ellipse id="SVGID_1_" cx="24.02" cy="22.5" rx="12.71" ry="11.74"/>
		</defs>
		<clipPath id="SVGID_00000139274340059339924940000010416076116673638792_">
			<use xlink:href="#SVGID_1_"  style="overflow:visible;"/>
		</clipPath>
		<g style="clip-path:url(#SVGID_00000139274340059339924940000010416076116673638792_);">
			
				<radialGradient id="SVGID_00000035530645334990604640000013213783443835131040_" cx="74.3202" cy="15.1435" r="8.1577" gradientTransform="matrix(1.594 0 0 1.473 -94.4436 0)" gradientUnits="userSpaceOnUse">
				<stop  offset="1.065558e-08" style="stop-color:#0092C4"/>
				<stop  offset="0.2083" style="stop-color:#008DB9"/>
				<stop  offset="0.5152" style="stop-color:#0081A2"/>
				<stop  offset="0.8727" style="stop-color:#004970"/>
				<stop  offset="1" style="stop-color:#0F2461"/>
			</radialGradient>
			<path style="fill:url(#SVGID_00000035530645334990604640000013213783443835131040_);" d="M36.73,22.5
				c0,6.49-5.69,11.74-12.71,11.74c-7.02,0-12.71-5.26-12.71-11.74c0-6.49,5.69-11.74,12.71-11.74
				C31.04,10.76,36.73,16.02,36.73,22.5z"/>
			<g>
				
					<radialGradient id="SVGID_00000010294814641965373410000006074111051544541594_" cx="74.3221" cy="14.9428" r="7.8861" gradientTransform="matrix(1.594 0 0 1.473 -94.4436 0)" gradientUnits="userSpaceOnUse">
					<stop  offset="0" style="stop-color:#D5FD00"/>
					<stop  offset="0.0837" style="stop-color:#CAF900"/>
					<stop  offset="0.2287" style="stop-color:#AEED00"/>
					<stop  offset="0.4165" style="stop-color:#81DA00"/>
					<stop  offset="0.5152" style="stop-color:#66CF00"/>
					<stop  offset="0.8727" style="stop-color:#248300"/>
					<stop  offset="1" style="stop-color:#359600"/>
				</radialGradient>
				<path style="fill:url(#SVGID_00000010294814641965373410000006074111051544541594_);" d="M18.47,12.07c0,0-0.01,0-0.02,0
					c-0.03,0.01-0.07,0.03-0.08,0.03c-0.01,0-0.08,0.06-0.08,0.06c0,0-0.01,0.01-0.01,0.01c0,0,0.03,0.01,0.14-0.05
					C18.49,12.08,18.49,12.07,18.47,12.07z"/>
				
					<radialGradient id="SVGID_00000121977668332625197450000008691453142501237165_" cx="74.3148" cy="14.968" r="7.9056" gradientTransform="matrix(1.594 0 0 1.473 -94.4436 0)" gradientUnits="userSpaceOnUse">
					<stop  offset="0" style="stop-color:#D5FD00"/>
					<stop  offset="0.0837" style="stop-color:#CAF900"/>
					<stop  offset="0.2287" style="stop-color:#AEED00"/>
					<stop  offset="0.4165" style="stop-color:#81DA00"/>
					<stop  offset="0.5152" style="stop-color:#66CF00"/>
					<stop  offset="0.8727" style="stop-color:#248300"/>
					<stop  offset="1" style="stop-color:#359600"/>
				</radialGradient>
				<path style="fill:url(#SVGID_00000121977668332625197450000008691453142501237165_);" d="M18.31,12.01
					C18.3,12,18.3,12.01,18.31,12.01c-0.03,0.01-0.06,0.02-0.07,0.03c-0.01,0-0.02,0.01-0.01,0.01c0,0,0.02,0,0.04-0.01
					C18.27,12.03,18.3,12.01,18.31,12.01z"/>
				
					<radialGradient id="SVGID_00000140734611383667641760000014228184859186419126_" cx="74.316" cy="14.9535" r="7.893" gradientTransform="matrix(1.594 0 0 1.473 -94.4436 0)" gradientUnits="userSpaceOnUse">
					<stop  offset="0" style="stop-color:#D5FD00"/>
					<stop  offset="0.0837" style="stop-color:#CAF900"/>
					<stop  offset="0.2287" style="stop-color:#AEED00"/>
					<stop  offset="0.4165" style="stop-color:#81DA00"/>
					<stop  offset="0.5152" style="stop-color:#66CF00"/>
					<stop  offset="0.8727" style="stop-color:#248300"/>
					<stop  offset="1" style="stop-color:#359600"/>
				</radialGradient>
				<path style="fill:url(#SVGID_00000140734611383667641760000014228184859186419126_);" d="M18.61,11.88
					c0.03-0.01,0.03-0.01,0.06-0.02c0,0,0.03-0.01,0.07-0.03c0,0,0.05-0.02,0.06-0.03c0,0,0,0-0.01,0c0,0-0.19,0.06-0.36,0.14
					l0.09-0.03C18.56,11.9,18.58,11.89,18.61,11.88z"/>
				
					<radialGradient id="SVGID_00000152228880872850257180000010073119018091090614_" cx="74.3151" cy="14.952" r="7.8912" gradientTransform="matrix(1.594 0 0 1.473 -94.4436 0)" gradientUnits="userSpaceOnUse">
					<stop  offset="0" style="stop-color:#D5FD00"/>
					<stop  offset="0.0837" style="stop-color:#CAF900"/>
					<stop  offset="0.2287" style="stop-color:#AEED00"/>
					<stop  offset="0.4165" style="stop-color:#81DA00"/>
					<stop  offset="0.5152" style="stop-color:#66CF00"/>
					<stop  offset="0.8727" style="stop-color:#248300"/>
					<stop  offset="1" style="stop-color:#359600"/>
				</radialGradient>
				<path style="fill:url(#SVGID_00000152228880872850257180000010073119018091090614_);" d="M18.42,11.98
					C18.41,11.98,18.41,11.98,18.42,11.98c0,0,0-0.01,0.07-0.03c0.02-0.01,0.06-0.02,0.07-0.03c0,0,0.01,0,0.01-0.01
					c0,0-0.01,0-0.01,0c-0.2,0.06-0.36,0.16-0.39,0.18C18.19,12.1,18.4,12,18.42,11.98C18.41,11.99,18.41,11.99,18.42,11.98z"/>
				
					<radialGradient id="SVGID_00000030487483048811787630000002200571196065740698_" cx="74.316" cy="14.9483" r="7.8883" gradientTransform="matrix(1.594 0 0 1.473 -94.4436 0)" gradientUnits="userSpaceOnUse">
					<stop  offset="0" style="stop-color:#D5FD00"/>
					<stop  offset="0.0837" style="stop-color:#CAF900"/>
					<stop  offset="0.2287" style="stop-color:#AEED00"/>
					<stop  offset="0.4165" style="stop-color:#81DA00"/>
					<stop  offset="0.5152" style="stop-color:#66CF00"/>
					<stop  offset="0.8727" style="stop-color:#248300"/>
					<stop  offset="1" style="stop-color:#359600"/>
				</radialGradient>
				<path style="fill:url(#SVGID_00000030487483048811787630000002200571196065740698_);" d="M18.62,11.97c0,0,0.01-0.01,0.01-0.01
					c0.01-0.01,0.01-0.01,0.02-0.02c0.01-0.01,0.02-0.02,0.04-0.03c0.01-0.01,0.01-0.01,0.01-0.01c0,0,0,0-0.01,0
					c-0.04,0.01-0.11,0.06-0.12,0.07c0,0,0,0,0,0c0.01,0,0.01,0-0.01,0.03C18.57,11.99,18.62,11.97,18.62,11.97z"/>
				
					<radialGradient id="SVGID_00000094606916019072777660000006931735644415465366_" cx="74.3148" cy="14.9471" r="7.8866" gradientTransform="matrix(1.594 0 0 1.473 -94.4436 0)" gradientUnits="userSpaceOnUse">
					<stop  offset="0" style="stop-color:#D5FD00"/>
					<stop  offset="0.0837" style="stop-color:#CAF900"/>
					<stop  offset="0.2287" style="stop-color:#AEED00"/>
					<stop  offset="0.4165" style="stop-color:#81DA00"/>
					<stop  offset="0.5152" style="stop-color:#66CF00"/>
					<stop  offset="0.8727" style="stop-color:#248300"/>
					<stop  offset="1" style="stop-color:#359600"/>
				</radialGradient>
				<path style="fill:url(#SVGID_00000094606916019072777660000006931735644415465366_);" d="M18.11,12.31c0,0-0.01,0-0.01,0
					c-0.02,0-0.03,0.01-0.03,0.01c-0.05,0.02-0.1,0.06-0.11,0.07c0,0,0,0,0,0c0.01,0,0.1-0.03,0.14-0.06
					C18.11,12.32,18.12,12.31,18.11,12.31z"/>
				
					<radialGradient id="SVGID_00000024703718178377984440000012782134057114476972_" cx="74.3165" cy="14.9492" r="7.8894" gradientTransform="matrix(1.594 0 0 1.473 -94.4436 0)" gradientUnits="userSpaceOnUse">
					<stop  offset="0" style="stop-color:#D5FD00"/>
					<stop  offset="0.0837" style="stop-color:#CAF900"/>
					<stop  offset="0.2287" style="stop-color:#AEED00"/>
					<stop  offset="0.4165" style="stop-color:#81DA00"/>
					<stop  offset="0.5152" style="stop-color:#66CF00"/>
					<stop  offset="0.8727" style="stop-color:#248300"/>
					<stop  offset="1" style="stop-color:#359600"/>
				</radialGradient>
				<path style="fill:url(#SVGID_00000024703718178377984440000012782134057114476972_);" d="M18.21,12.5c0,0-0.01-0.01-0.04,0
					c0,0-0.01,0-0.02,0c-0.04,0.01-0.09,0.02-0.13,0.02c-0.05,0.01-0.23,0.09-0.25,0.12c0,0,0,0,0,0c0.01,0,0.03,0,0.04,0.01
					c0.02,0.01,0.02,0.02,0.01,0.03c-0.01,0.01-0.12,0.09-0.15,0.11c-0.01,0.01-0.01,0.01-0.02,0.01c-0.01-0.03,0.03-0.04,0.03-0.07
					c-0.02,0-0.13,0.06-0.14,0.08c0,0,0,0.01,0,0.01c0.01,0.02,0.02,0.04,0.03,0.07c0,0.01,0.01,0.02,0.01,0.03
					c0,0.02-0.01,0.03-0.01,0.05c0,0,0,0.01,0,0.01c0.03,0.03,0.33-0.13,0.41-0.2c0.02-0.02,0.07-0.11,0.04-0.11
					c-0.04,0-0.07,0.02-0.1,0.03c0.07-0.04,0.15-0.07,0.21-0.11C18.12,12.57,18.21,12.51,18.21,12.5z"/>
				
					<radialGradient id="SVGID_00000073680639283692807790000016483433739262084789_" cx="74.3156" cy="14.9515" r="7.8909" gradientTransform="matrix(1.594 0 0 1.473 -94.4436 0)" gradientUnits="userSpaceOnUse">
					<stop  offset="0" style="stop-color:#D5FD00"/>
					<stop  offset="0.0837" style="stop-color:#CAF900"/>
					<stop  offset="0.2287" style="stop-color:#AEED00"/>
					<stop  offset="0.4165" style="stop-color:#81DA00"/>
					<stop  offset="0.5152" style="stop-color:#66CF00"/>
					<stop  offset="0.8727" style="stop-color:#248300"/>
					<stop  offset="1" style="stop-color:#359600"/>
				</radialGradient>
				<path style="fill:url(#SVGID_00000073680639283692807790000016483433739262084789_);" d="M17.36,12.49
					c0.13-0.05,0.24-0.14,0.36-0.19c-0.13,0.07-0.13,0.07-0.13,0.08l0.43-0.23c0.01,0,0.02-0.01,0.03-0.03c0,0-0.01,0-0.02,0
					c-0.09,0.04-0.7,0.34-0.83,0.44C17.28,12.56,17.32,12.51,17.36,12.49C17.37,12.49,17.37,12.49,17.36,12.49z"/>
				
					<radialGradient id="SVGID_00000006682907207779230330000015483023701621237144_" cx="74.3152" cy="14.9503" r="7.8896" gradientTransform="matrix(1.594 0 0 1.473 -94.4436 0)" gradientUnits="userSpaceOnUse">
					<stop  offset="0" style="stop-color:#D5FD00"/>
					<stop  offset="0.0837" style="stop-color:#CAF900"/>
					<stop  offset="0.2287" style="stop-color:#AEED00"/>
					<stop  offset="0.4165" style="stop-color:#81DA00"/>
					<stop  offset="0.5152" style="stop-color:#66CF00"/>
					<stop  offset="0.8727" style="stop-color:#248300"/>
					<stop  offset="1" style="stop-color:#359600"/>
				</radialGradient>
				<path style="fill:url(#SVGID_00000006682907207779230330000015483023701621237144_);" d="M17.37,13.32
					C17.36,13.32,17.36,13.32,17.37,13.32c-0.01,0-0.02,0.01-0.03,0.02c-0.06,0.04-0.1,0.09-0.16,0.13
					c-0.1,0.06-0.13,0.07-0.14,0.09c0,0,0,0,0,0c0.01,0,0.02,0,0.04-0.01c0.04-0.01,0.04-0.01,0.05,0c0.01,0.01,0.01,0.03,0.03,0.03
					c0.01,0,0.03,0,0.06-0.01c0.17-0.03,0.25-0.1,0.25-0.1c0.02-0.02-0.03-0.1-0.03-0.1C17.41,13.34,17.37,13.32,17.37,13.32z"/>
				
					<radialGradient id="SVGID_00000065778153306354762890000000530602060310103687_" cx="74.3194" cy="14.9486" r="7.8904" gradientTransform="matrix(1.594 0 0 1.473 -94.4436 0)" gradientUnits="userSpaceOnUse">
					<stop  offset="0" style="stop-color:#D5FD00"/>
					<stop  offset="0.0837" style="stop-color:#CAF900"/>
					<stop  offset="0.2287" style="stop-color:#AEED00"/>
					<stop  offset="0.4165" style="stop-color:#81DA00"/>
					<stop  offset="0.5152" style="stop-color:#66CF00"/>
					<stop  offset="0.8727" style="stop-color:#248300"/>
					<stop  offset="1" style="stop-color:#359600"/>
				</radialGradient>
				<path style="fill:url(#SVGID_00000065778153306354762890000000530602060310103687_);" d="M17.61,12.65c0,0-0.01,0-0.03,0
					c-0.09,0.02-0.16,0.08-0.16,0.08c0,0,0,0,0,0c0.01,0,0.02,0,0.03,0c0,0.01,0,0.01-0.01,0.02c-0.01,0.01-0.02,0.04,0,0.03
					c0.03-0.01,0.12-0.08,0.13-0.09C17.62,12.66,17.63,12.65,17.61,12.65z"/>
				
					<radialGradient id="SVGID_00000133519718110930548420000010341598136645032850_" cx="74.3154" cy="14.949" r="7.8886" gradientTransform="matrix(1.594 0 0 1.473 -94.4436 0)" gradientUnits="userSpaceOnUse">
					<stop  offset="0" style="stop-color:#D5FD00"/>
					<stop  offset="0.0837" style="stop-color:#CAF900"/>
					<stop  offset="0.2287" style="stop-color:#AEED00"/>
					<stop  offset="0.4165" style="stop-color:#81DA00"/>
					<stop  offset="0.5152" style="stop-color:#66CF00"/>
					<stop  offset="0.8727" style="stop-color:#248300"/>
					<stop  offset="1" style="stop-color:#359600"/>
				</radialGradient>
				<path style="fill:url(#SVGID_00000133519718110930548420000010341598136645032850_);" d="M21.75,11.09
					c-0.06,0.07-0.22,0.11-0.31,0.13c0,0-0.45,0.12-0.46,0.14c-0.12,0.15,0.18,0.2,0.19,0.2c0.76-0.05,0.77-0.04,0.82,0
					c0,0,0.36,0.37,0.24,0.56c-0.05,0.08-0.05,0.08-0.04,0.09c0.01,0.04,0.06,0.05,0.08,0.08c0.02,0.05,0,0.12,0.03,0.17
					c0.1-0.02,0.18-0.12,0.3-0.07c0.2,0.08,0.11,0.24,0.11,0.24c-0.08,0.09-0.24,0.09-0.31,0.19c-0.04,0.06-0.08,0.21-0.05,0.3
					c0.01,0.04,0.61,0.97,0.89,1.06c-0.14-1.93-0.25-2.81-0.39-3.23c0.13,0.37,0.23,1.09,0.39,3.23c0.71,0.13,0.73,0.11,0.77,0.06
					c0.08-0.08,0.2-0.68,0.2-0.68c0.02-0.09-0.03-0.18,0.02-0.27c0.03-0.04,0.03-0.05,0.21-0.1c0.56-0.16,0.56-0.16,0.57-0.25
					c0.01-0.1,0.02-0.16,0.12-0.2c0.24-0.11,0.53-0.13,0.77-0.25c0.1-0.05,0.21-0.08,0.3-0.14c0,0,0.05-0.03-0.01-0.1
					c-0.08-0.1-0.21-0.16-0.29-0.26c-0.05-0.07-0.05-0.15-0.08-0.22c-0.04-0.08-0.02-0.1,0.03-0.15c0.07-0.06,0.02-0.09-0.12-0.17
					c-0.46-0.25-0.47-0.26-0.51-0.32c0-0.01,0.01-0.01,0.01-0.02c0.01,0,0.02-0.01,0.02-0.01c-0.14-0.12-0.41-0.03-0.48-0.26
					c-0.01-0.01-0.03-0.02-0.05-0.02c0-0.01,0.01-0.03,0.01-0.04c0.01,0,0.01,0,0.02,0c-0.06-0.01-0.24-0.02-0.24-0.02
					c-0.12-0.01-0.27,0.02-0.29,0.02c-0.1,0.02-0.19-0.04-0.29-0.05c-0.14,0-0.44,0-0.56,0c-0.22,0.01-0.22,0.01-0.25,0.03l0,0
					c-0.24,0.01-0.24,0.01-0.36,0.03h0c0,0-0.01,0-0.01,0c0,0,0,0,0,0c0,0,0.01,0,0.01,0c0.14,0.01,0.14,0.01,0.18,0.02
					c-0.01,0-0.01,0-0.17,0c-0.06,0-0.09,0-0.17,0.01c-0.57,0.06-0.97,0.23-0.98,0.23C21.66,11.09,21.66,11.09,21.75,11.09z"/>
				
					<radialGradient id="SVGID_00000090974387039334813010000006133753043293881499_" cx="74.316" cy="14.9491" r="7.889" gradientTransform="matrix(1.594 0 0 1.473 -94.4436 0)" gradientUnits="userSpaceOnUse">
					<stop  offset="0" style="stop-color:#D5FD00"/>
					<stop  offset="0.0837" style="stop-color:#CAF900"/>
					<stop  offset="0.2287" style="stop-color:#AEED00"/>
					<stop  offset="0.4165" style="stop-color:#81DA00"/>
					<stop  offset="0.5152" style="stop-color:#66CF00"/>
					<stop  offset="0.8727" style="stop-color:#248300"/>
					<stop  offset="1" style="stop-color:#359600"/>
				</radialGradient>
				<path style="fill:url(#SVGID_00000090974387039334813010000006133753043293881499_);" d="M19.6,13.31
					c0.03-0.07,0.02-0.1-0.04-0.1c0,0-0.16,0.04-0.19,0.11c-0.02,0.04,0.05,0.14,0.08,0.15C19.51,13.51,19.6,13.31,19.6,13.31z"/>
				
					<radialGradient id="SVGID_00000127032821578589520410000006104520523782034866_" cx="74.3154" cy="14.9486" r="7.8882" gradientTransform="matrix(1.594 0 0 1.473 -94.4436 0)" gradientUnits="userSpaceOnUse">
					<stop  offset="0" style="stop-color:#D5FD00"/>
					<stop  offset="0.0837" style="stop-color:#CAF900"/>
					<stop  offset="0.2287" style="stop-color:#AEED00"/>
					<stop  offset="0.4165" style="stop-color:#81DA00"/>
					<stop  offset="0.5152" style="stop-color:#66CF00"/>
					<stop  offset="0.8727" style="stop-color:#248300"/>
					<stop  offset="1" style="stop-color:#359600"/>
				</radialGradient>
				<path style="fill:url(#SVGID_00000127032821578589520410000006104520523782034866_);" d="M20.75,11.19
					c-0.04,0.01-0.07,0.03-0.11,0.04c0.12-0.03,0.49-0.12,0.55-0.14c-0.25,0.08-0.45,0.14-0.66,0.18c-0.05,0.01-0.06,0.02-0.08,0.03
					c0,0.01-0.02,0.08-0.06,0.11c-0.11-0.03-0.4,0.12-0.41,0.13c0.03,0.01,0.06,0.01,0.08,0.02c0,0,0,0.01,0,0.01
					c0.04,0,0.05-0.01,0.18-0.05c-0.21,0.11-0.24,0.08-0.26,0.07c-0.16,0-0.17,0.06-0.18,0.09c-0.09,0.06-0.21,0.06-0.29,0.14
					c0,0,0.01,0.01,0.01,0.01c0.03,0,0.04,0,0.21-0.03c0.12-0.02,0.24-0.1,0.37-0.08c-0.01,0.02-0.01,0.02-0.04,0.04
					c0.09,0.02,0.38-0.11,0.36-0.18c-0.01,0-0.02-0.01-0.03-0.01c0.02-0.03,0.21-0.14,0.26-0.15c0.26-0.06,0.35-0.15,0.35-0.17
					c0,0-0.01,0-0.01,0c0.24-0.06,0.35-0.09,0.43-0.13c-0.02,0-0.02,0-0.06,0.01c0,0,0.55-0.16,0.58-0.17
					c-0.14,0.02-0.15,0.02-0.2,0.02c0.14-0.03,0.27-0.05,0.41-0.08c-0.13,0-0.35,0.03-0.35,0.03c-0.01,0-0.53,0.08-0.64,0.12
					c0,0.01,0.01,0.01,0.02,0.02c-0.02,0.01-0.04,0.01-0.1,0.01c-0.04,0-0.49,0.1-0.54,0.15C20.55,11.23,20.56,11.24,20.75,11.19z"
					/>
				
					<radialGradient id="SVGID_00000093864384998625021500000012749419022409606575_" cx="74.3152" cy="14.9487" r="7.8883" gradientTransform="matrix(1.594 0 0 1.473 -94.4436 0)" gradientUnits="userSpaceOnUse">
					<stop  offset="0" style="stop-color:#D5FD00"/>
					<stop  offset="0.0837" style="stop-color:#CAF900"/>
					<stop  offset="0.2287" style="stop-color:#AEED00"/>
					<stop  offset="0.4165" style="stop-color:#81DA00"/>
					<stop  offset="0.5152" style="stop-color:#66CF00"/>
					<stop  offset="0.8727" style="stop-color:#248300"/>
					<stop  offset="1" style="stop-color:#359600"/>
				</radialGradient>
				<path style="fill:url(#SVGID_00000093864384998625021500000012749419022409606575_);" d="M18.64,12.03
					c-0.01,0.01-0.02,0.03-0.03,0.04c-0.02,0.02-0.02,0.02-0.07,0.06c0.01-0.01,0.01-0.03,0.02-0.04c0-0.01,0.01-0.01,0.01-0.02
					c0,0-0.05,0-0.1,0.05c0.01,0,0.01,0,0.02,0c0,0,0,0,0,0c-0.05,0.04-0.13,0.05-0.19,0.08c0.01,0,0.02-0.01,0.03,0
					c-0.01,0.01-0.01,0.01-0.01,0.02c0.01,0,0.01,0,0.18-0.05c-0.06,0.03-0.2,0.1-0.21,0.14c0,0,0,0,0,0c0,0,0.2-0.07,0.22-0.08
					c0.02-0.01,0.02-0.01,0.13-0.1c0,0,0,0.01,0,0.02c0,0,0,0,0,0c0.05-0.04,0.05-0.04,0.19-0.15c0.03-0.02,0.03-0.02,0.04-0.03
					c-0.01,0-0.01,0-0.02,0C18.84,11.97,18.66,12.02,18.64,12.03C18.64,12.03,18.64,12.03,18.64,12.03z"/>
				
					<radialGradient id="SVGID_00000010994722791294598270000000292998826022221191_" cx="74.3152" cy="14.949" r="7.8886" gradientTransform="matrix(1.594 0 0 1.473 -94.4436 0)" gradientUnits="userSpaceOnUse">
					<stop  offset="0" style="stop-color:#D5FD00"/>
					<stop  offset="0.0837" style="stop-color:#CAF900"/>
					<stop  offset="0.2287" style="stop-color:#AEED00"/>
					<stop  offset="0.4165" style="stop-color:#81DA00"/>
					<stop  offset="0.5152" style="stop-color:#66CF00"/>
					<stop  offset="0.8727" style="stop-color:#248300"/>
					<stop  offset="1" style="stop-color:#359600"/>
				</radialGradient>
				<path style="fill:url(#SVGID_00000010994722791294598270000000292998826022221191_);" d="M20.55,13.32
					c0.08-0.01,0.26,0.2,0.26,0.2c0.04,0.05,0.09,0.1,0.13,0.1c0.11-0.02,0.28-0.41,0.28-0.42c0-0.01,0.01-0.03,0.01-0.04
					l-0.82-0.17c0.02-0.02,0.04-0.03,0.24-0.11c0.09-0.04,0.13-0.05,0.13-0.07c-0.01-0.05-0.29-0.31-0.43-0.33
					c-0.06-0.01-0.13,0.01-0.19-0.02c-0.06-0.03-0.06-0.12-0.14-0.13c-0.08-0.01-0.25,0.05-0.38,0.1c-0.13,0.04-0.13,0.04-0.15,0.04
					c-0.01-0.02-0.02-0.04-0.02-0.21c-0.05-0.02-0.21,0.01-0.26,0.01c-0.25,0.05-0.98,0.62-0.84,0.71c0.14,0.09,0.61,0,0.67-0.03
					c-0.01-0.04-0.02-0.06,0.19-0.08c0.17-0.02,0.2-0.06,0.22-0.08c0.04,0.02,0.15,0.11,0.16,0.11c0.06,0.06,0.09,0.14,0.14,0.2
					c0.07,0.08,0.23,0.07,0.23,0.21c0,0-0.04,0.32-0.52,0.46c-0.14,0.04-0.3,0.03-0.44,0.1c-0.06,0.03-0.06,0.12-0.05,0.14
					c0.03,0.02,0.11,0.03,0.37-0.05c0.19-0.06,0.19-0.06,0.54,0.08c-0.03,0.03-0.03,0.03-0.17,0.08c0.08,0.06,0.67,0.18,0.79,0.11
					c0-0.02,0-0.02-0.04-0.03c-0.02-0.01-0.02-0.01-0.28-0.23c0.21,0.02,0.27,0.04,0.39,0.12c0.02,0.01,0.04,0.02,0.05,0.02
					c0.07-0.02,0.18-0.25,0.12-0.3c-0.11-0.11-0.33-0.1-0.39-0.27C20.28,13.39,20.54,13.32,20.55,13.32z"/>
				
					<radialGradient id="SVGID_00000054947113350417080500000018249750446812601744_" cx="74.3157" cy="14.9329" r="7.8744" gradientTransform="matrix(1.594 0 0 1.473 -94.4436 0)" gradientUnits="userSpaceOnUse">
					<stop  offset="0" style="stop-color:#D5FD00"/>
					<stop  offset="0.0837" style="stop-color:#CAF900"/>
					<stop  offset="0.2287" style="stop-color:#AEED00"/>
					<stop  offset="0.4165" style="stop-color:#81DA00"/>
					<stop  offset="0.5152" style="stop-color:#66CF00"/>
					<stop  offset="0.8727" style="stop-color:#248300"/>
					<stop  offset="1" style="stop-color:#359600"/>
				</radialGradient>
				<path style="fill:url(#SVGID_00000054947113350417080500000018249750446812601744_);" d="M17.87,12.24
					c0.01,0.01,0.05-0.02,0.09-0.04c0.01,0,0.02-0.01,0.02-0.02c0,0,0,0,0,0c0,0,0,0-0.01,0C17.96,12.2,17.87,12.23,17.87,12.24z"/>
				
					<radialGradient id="SVGID_00000028320955410670905220000005783271141820141216_" cx="74.3149" cy="14.9479" r="7.8871" gradientTransform="matrix(1.594 0 0 1.473 -94.4436 0)" gradientUnits="userSpaceOnUse">
					<stop  offset="0" style="stop-color:#D5FD00"/>
					<stop  offset="0.0837" style="stop-color:#CAF900"/>
					<stop  offset="0.2287" style="stop-color:#AEED00"/>
					<stop  offset="0.4165" style="stop-color:#81DA00"/>
					<stop  offset="0.5152" style="stop-color:#66CF00"/>
					<stop  offset="0.8727" style="stop-color:#248300"/>
					<stop  offset="1" style="stop-color:#359600"/>
				</radialGradient>
				<path style="fill:url(#SVGID_00000028320955410670905220000005783271141820141216_);" d="M22.4,12.67l0.12-0.02
					c0,0,0.03-0.01,0.04-0.04c0.01-0.01,0-0.02-0.01-0.03c-0.01-0.02-0.03-0.02-0.05-0.04c-0.01-0.01-0.01-0.02-0.01-0.02
					c0,0,0,0,0,0c0,0-0.02-0.01-0.06-0.01c-0.06,0.01-0.22,0.1-0.13,0.15C22.33,12.66,22.36,12.67,22.4,12.67z"/>
				
					<radialGradient id="SVGID_00000146487677601060378900000015348060012860732566_" cx="74.3151" cy="14.9519" r="7.8915" gradientTransform="matrix(1.594 0 0 1.473 -94.4436 0)" gradientUnits="userSpaceOnUse">
					<stop  offset="0" style="stop-color:#D5FD00"/>
					<stop  offset="0.0837" style="stop-color:#CAF900"/>
					<stop  offset="0.2287" style="stop-color:#AEED00"/>
					<stop  offset="0.4165" style="stop-color:#81DA00"/>
					<stop  offset="0.5152" style="stop-color:#66CF00"/>
					<stop  offset="0.8727" style="stop-color:#248300"/>
					<stop  offset="1" style="stop-color:#359600"/>
				</radialGradient>
				<path style="fill:url(#SVGID_00000146487677601060378900000015348060012860732566_);" d="M19.95,12.27
					C19.95,12.27,19.95,12.27,19.95,12.27c-0.01-0.02-0.18-0.07-0.31-0.05c-0.11,0.02-0.08,0.09-0.05,0.11
					C19.67,12.39,19.95,12.27,19.95,12.27z"/>
				
					<radialGradient id="SVGID_00000183928638074036284220000005854548657568170175_" cx="74.3168" cy="14.9426" r="7.883" gradientTransform="matrix(1.594 0 0 1.473 -94.4436 0)" gradientUnits="userSpaceOnUse">
					<stop  offset="0" style="stop-color:#D5FD00"/>
					<stop  offset="0.0837" style="stop-color:#CAF900"/>
					<stop  offset="0.2287" style="stop-color:#AEED00"/>
					<stop  offset="0.4165" style="stop-color:#81DA00"/>
					<stop  offset="0.5152" style="stop-color:#66CF00"/>
					<stop  offset="0.8727" style="stop-color:#248300"/>
					<stop  offset="1" style="stop-color:#359600"/>
				</radialGradient>
				<path style="fill:url(#SVGID_00000183928638074036284220000005854548657568170175_);" d="M19.07,11.73
					c-0.04,0.01-0.09,0.04-0.11,0.04c0.01,0,0.01,0,0.02,0c0.06-0.02,0.11-0.01,0.11-0.01c-0.01,0.02-0.03,0.02-0.04,0.04
					c0.01,0.01,0.1-0.03,0.11-0.03c0.03-0.02,0.14-0.1,0.14-0.12c-0.01,0-0.03,0.01-0.04,0.01c0.01-0.02,0.04-0.02,0.06-0.04
					c0,0,0,0-0.01,0c-0.1,0.03-0.23,0.08-0.25,0.09c0.02,0.01,0.04-0.01,0.06-0.01C19.13,11.7,19.12,11.71,19.07,11.73z"/>
				
					<radialGradient id="SVGID_00000124856520205822341360000003788015093887765159_" cx="74.3125" cy="14.9507" r="7.8888" gradientTransform="matrix(1.594 0 0 1.473 -94.4436 0)" gradientUnits="userSpaceOnUse">
					<stop  offset="0" style="stop-color:#D5FD00"/>
					<stop  offset="0.0837" style="stop-color:#CAF900"/>
					<stop  offset="0.2287" style="stop-color:#AEED00"/>
					<stop  offset="0.4165" style="stop-color:#81DA00"/>
					<stop  offset="0.5152" style="stop-color:#66CF00"/>
					<stop  offset="0.8727" style="stop-color:#248300"/>
					<stop  offset="1" style="stop-color:#359600"/>
				</radialGradient>
				<path style="fill:url(#SVGID_00000124856520205822341360000003788015093887765159_);" d="M18.6,12.21
					c-0.02,0.02-0.03,0.02,0,0.04c0.03,0.02,0.11,0,0.18-0.05c0.04-0.03,0.12-0.11,0.08-0.11c0,0-0.01,0-0.02,0
					C18.78,12.11,18.61,12.2,18.6,12.21z"/>
				
					<radialGradient id="SVGID_00000060736938184838055660000010539224222090220180_" cx="74.3153" cy="14.9486" r="7.8881" gradientTransform="matrix(1.594 0 0 1.473 -94.4436 0)" gradientUnits="userSpaceOnUse">
					<stop  offset="0" style="stop-color:#D5FD00"/>
					<stop  offset="0.0837" style="stop-color:#CAF900"/>
					<stop  offset="0.2287" style="stop-color:#AEED00"/>
					<stop  offset="0.4165" style="stop-color:#81DA00"/>
					<stop  offset="0.5152" style="stop-color:#66CF00"/>
					<stop  offset="0.8727" style="stop-color:#248300"/>
					<stop  offset="1" style="stop-color:#359600"/>
				</radialGradient>
				<path style="fill:url(#SVGID_00000060736938184838055660000010539224222090220180_);" d="M19.67,11.67
					C19.67,11.67,19.67,11.66,19.67,11.67c0,0-0.01,0-0.01,0c0,0-0.01,0-0.01,0c-0.05,0.01-0.1,0.03-0.15,0.05
					c-0.06,0.02-0.12,0.03-0.18,0.04c-0.04,0.01-0.07,0.02-0.08,0.03c0.02,0,0.19-0.02,0.28-0.05c0.05-0.01,0.07-0.02,0.13-0.06
					C19.66,11.67,19.67,11.67,19.67,11.67z"/>
				
					<radialGradient id="SVGID_00000057148808838904930700000005099240186008977062_" cx="74.3164" cy="14.9507" r="7.8905" gradientTransform="matrix(1.594 0 0 1.473 -94.4436 0)" gradientUnits="userSpaceOnUse">
					<stop  offset="0" style="stop-color:#D5FD00"/>
					<stop  offset="0.0837" style="stop-color:#CAF900"/>
					<stop  offset="0.2287" style="stop-color:#AEED00"/>
					<stop  offset="0.4165" style="stop-color:#81DA00"/>
					<stop  offset="0.5152" style="stop-color:#66CF00"/>
					<stop  offset="0.8727" style="stop-color:#248300"/>
					<stop  offset="1" style="stop-color:#359600"/>
				</radialGradient>
				<path style="fill:url(#SVGID_00000057148808838904930700000005099240186008977062_);" d="M19.25,11.75
					C19.25,11.75,19.25,11.75,19.25,11.75c0.02,0,0.19-0.07,0.24-0.09c0.02-0.01,0.03-0.01,0.03-0.02c0-0.01-0.02-0.01-0.02-0.02
					c0,0,0-0.01,0-0.01c0,0,0,0,0,0c0,0,0,0-0.01,0c-0.01,0-0.01,0-0.02,0c-0.01,0-0.02,0.01-0.03,0.01
					c-0.04,0.02-0.06,0.06-0.11,0.08C19.28,11.72,19.26,11.72,19.25,11.75z"/>
				
					<radialGradient id="SVGID_00000011736078658851181360000011352729363377536940_" cx="74.3157" cy="14.9472" r="7.8869" gradientTransform="matrix(1.594 0 0 1.473 -94.4436 0)" gradientUnits="userSpaceOnUse">
					<stop  offset="0" style="stop-color:#D5FD00"/>
					<stop  offset="0.0837" style="stop-color:#CAF900"/>
					<stop  offset="0.2287" style="stop-color:#AEED00"/>
					<stop  offset="0.4165" style="stop-color:#81DA00"/>
					<stop  offset="0.5152" style="stop-color:#66CF00"/>
					<stop  offset="0.8727" style="stop-color:#248300"/>
					<stop  offset="1" style="stop-color:#359600"/>
				</radialGradient>
				<path style="fill:url(#SVGID_00000011736078658851181360000011352729363377536940_);" d="M19.65,11.51
					c0.12-0.06,0.12-0.06,0.13-0.06c0,0-0.01,0-0.01,0c0,0-0.12,0.04-0.16,0.05c-0.04,0.02-0.03,0.03-0.03,0.03
					C19.59,11.54,19.62,11.52,19.65,11.51z"/>
				
					<radialGradient id="SVGID_00000095305708080270725750000015543306890110846895_" cx="74.3161" cy="14.9489" r="7.8887" gradientTransform="matrix(1.594 0 0 1.473 -94.4436 0)" gradientUnits="userSpaceOnUse">
					<stop  offset="0" style="stop-color:#D5FD00"/>
					<stop  offset="0.0837" style="stop-color:#CAF900"/>
					<stop  offset="0.2287" style="stop-color:#AEED00"/>
					<stop  offset="0.4165" style="stop-color:#81DA00"/>
					<stop  offset="0.5152" style="stop-color:#66CF00"/>
					<stop  offset="0.8727" style="stop-color:#248300"/>
					<stop  offset="1" style="stop-color:#359600"/>
				</radialGradient>
				<path style="fill:url(#SVGID_00000095305708080270725750000015543306890110846895_);" d="M19.92,11.45
					c0.05-0.01,0.07-0.02,0.09-0.01c0,0,0,0,0,0.01c-0.02,0.01-0.03,0.01-0.08,0.03c-0.14,0.04-0.18,0.06-0.19,0.06
					c-0.03,0.02-0.03,0.05-0.02,0.06c0,0,0,0,0.09-0.02c0.04-0.01,0.07,0,0.11-0.01c0.09-0.03,0.16-0.08,0.25-0.12
					c0.05-0.02,0.11-0.03,0.16-0.05c0,0,0.01,0,0.01-0.01c0,0,0,0-0.04-0.01c0,0,0,0,0,0c0.01-0.01,0.02-0.01,0.03-0.01
					c0.07-0.03,0.07-0.03,0.07-0.04c-0.01,0-0.02,0-0.02-0.01c0.01-0.01,0.04-0.02,0.03-0.04c0.02-0.02,0.04-0.02,0.05-0.04
					c0,0-0.01,0-0.02,0c-0.09,0.02-0.41,0.13-0.44,0.15c0.02,0,0.03,0,0.05-0.01c-0.02,0.02-0.09,0.03-0.12,0.04
					c-0.1,0.02-0.15,0.07-0.15,0.07C19.8,11.49,19.91,11.46,19.92,11.45z"/>
				
					<radialGradient id="SVGID_00000103244581025548258560000006608769698000267707_" cx="74.3149" cy="14.9505" r="7.8899" gradientTransform="matrix(1.594 0 0 1.473 -94.4436 0)" gradientUnits="userSpaceOnUse">
					<stop  offset="0" style="stop-color:#D5FD00"/>
					<stop  offset="0.0837" style="stop-color:#CAF900"/>
					<stop  offset="0.2287" style="stop-color:#AEED00"/>
					<stop  offset="0.4165" style="stop-color:#81DA00"/>
					<stop  offset="0.5152" style="stop-color:#66CF00"/>
					<stop  offset="0.8727" style="stop-color:#248300"/>
					<stop  offset="1" style="stop-color:#359600"/>
				</radialGradient>
				<path style="fill:url(#SVGID_00000103244581025548258560000006608769698000267707_);" d="M18.91,12.21c0.01,0,0.9-0.08,1.13-0.3
					c0.06-0.06-0.09-0.07-0.1-0.07c-0.08,0-0.48,0.13-0.56,0.16c-0.07,0.03-0.13-0.04-0.12-0.05c0.01-0.01,0.02-0.01,0.05-0.02
					c0.14-0.04,0.07-0.08,0.06-0.08c-0.04,0-0.07,0.02-0.11,0.02c-0.04,0-0.08-0.01-0.13-0.01c-0.01,0-0.05,0.01-0.08,0.01
					c-0.02,0.01-0.09,0.08-0.09,0.09c0.02,0,0.02,0,0.05-0.01c0.04-0.01,0.09-0.03,0.11-0.02c0.02,0.01-0.05,0.1-0.05,0.1
					c-0.04,0.04-0.1,0.05-0.14,0.09C18.85,12.21,18.88,12.21,18.91,12.21z"/>
				
					<radialGradient id="SVGID_00000129188025120747094700000001264461035676866745_" cx="74.3155" cy="14.9558" r="7.8853" gradientTransform="matrix(1.594 0 0 1.473 -94.4436 0)" gradientUnits="userSpaceOnUse">
					<stop  offset="0" style="stop-color:#D5FD00"/>
					<stop  offset="0.0837" style="stop-color:#CAF900"/>
					<stop  offset="0.2287" style="stop-color:#AEED00"/>
					<stop  offset="0.4165" style="stop-color:#81DA00"/>
					<stop  offset="0.5152" style="stop-color:#66CF00"/>
					<stop  offset="0.8727" style="stop-color:#248300"/>
					<stop  offset="1" style="stop-color:#359600"/>
				</radialGradient>
				<path style="fill:url(#SVGID_00000129188025120747094700000001264461035676866745_);" d="M36.73,22.38
					c-0.02-0.33-0.04-0.77-0.07-1.09c-0.02-0.1-0.03-0.19-0.04-0.27c-0.08-0.26-0.09-0.3-0.26-1.22c0,0,0,0.01,0.01,0.01
					c-0.41-1.25-0.41-1.25-0.41-1.31c0,0,0,0,0.01,0.01c-0.14-0.39-0.21-0.52-0.4-0.91l-0.44-0.79c-0.12-0.15-0.26-0.28-0.46-0.4
					c0.19,0.11,0.35,0.24,0.46,0.4c-0.17-0.25-0.38-0.6-0.56-0.84c-0.76-0.96-0.78-0.98-1.25-1.45l-0.51-0.47l0,0
					c-0.02-0.02-0.04-0.03-0.06-0.05c0.02,0.03,0.03,0.04,0.24,0.24c-0.04-0.02-0.07-0.05-0.11-0.07c0.06,0.1,0.17,0.16,0.25,0.23
					c-0.01,0-0.01,0.01-0.02,0.01c-0.35-0.27-0.65-0.59-1.01-0.85c0.18,0.1,0.32,0.25,0.51,0.34c-0.05-0.08-0.59-0.51-0.94-0.71
					c-0.26-0.14-0.28-0.17-0.31-0.19c0.01,0,0.03,0.01,0.05,0.02c-0.03-0.02-0.04-0.03-0.12-0.07c-0.01,0-0.01,0.01-0.02,0.01
					c-0.02-0.01-0.07-0.02-0.24-0.13c0.02,0.01,0.04,0.01,0.05,0.02c-0.03-0.06-0.34-0.2-0.37-0.2c0.01,0.03,0.01,0.03,0.07,0.09
					c-0.11-0.03-0.16-0.14-0.27-0.18c0.02,0.05,0.07,0.07,0.09,0.11c-0.04,0.08-0.04,0.08-0.03,0.13c0.01,0.07,0.26,0.48,0.26,0.49
					c0.19,0.27,0.18,0.36,0.18,0.37c-0.04,0.25-0.04,0.25-0.18,0.35c-0.05,0.04-0.05,0.05-0.02,0.12c0,0.01,0.4,0.86,0.76,0.71
					c0.12-0.05,0.06-0.23,0.03-0.31c0.03,0.02,0.68,0.62,0.8,0.81c0.06,0.09,0.11,0.17,0.21,0.18c0.02-0.03,0.03-0.27-0.03-0.38
					c-0.15-0.25-0.11-0.28-0.04-0.34c0-0.06-0.01-0.08-0.19-0.2c-0.13-0.08-0.13-0.08-0.31-0.35c-0.07-0.1,0.04-0.23-0.06-0.32
					c-0.26-0.25-0.26-0.25-0.27-0.27c0-0.01-0.01-0.02-0.01-0.03c0-0.01,0.01-0.01,0.01-0.02c0.1,0.03,0.42,0.23,0.45,0.29
					c-0.01,0-0.02,0-0.03,0c0.25,0.52,0.25,0.52,0.49,0.72c0.21,0.18,0.52,0.15,0.73,0.33c-0.04,0-0.07-0.02-0.1-0.03
					c-0.01,0-0.01,0.01-0.02,0.01c0.01,0.02,0.03,0.04,0.04,0.07c-0.12-0.03-0.24-0.08-0.36-0.1c0.14,0.18,0.34,0.31,0.44,0.5
					c-0.14,0-0.15-0.19-0.29-0.18c0,0.01-0.01,0.01-0.01,0.02c0,0,0.17,0.28,0.18,0.3c0.02,0.03,0.13,0.16,0.13,0.22
					c-0.08-0.01-0.08-0.01-0.1,0c-0.01,0.02-0.02,0.05-0.03,0.07c0,0.01,0.01,0.01,0.01,0.02l0,0c-0.38-0.02-0.38-0.02-0.39,0.01
					c-0.02,0.01-0.04,0.02-0.05,0.03c-0.08-0.04-0.18-0.07-0.29-0.09l0.19,0.03c-0.03-0.02-0.11-0.08-0.26-0.07
					c-0.05,0-0.06,0-0.21-0.15c-0.1-0.11-0.23-0.27-0.22-0.41c0-0.06-0.09-0.3-0.16-0.31c-0.01,0-0.21,0-0.17,0.09
					c0.01,0.04,0.27,0.45,0.45,0.64c0.07,0.08,0.08,0.09,0.08,0.09c-0.01,0.01-0.01,0.01-0.07,0.02c-0.04,0.01-0.09,0.01-0.13,0.02
					c-0.01,0.01-0.03,0.03-0.04,0.05c-0.2-0.01-0.2-0.01-0.26,0.04c0.01,0.05,0.03,0.15,0.1,0.32c-0.01,0.02-0.02,0.04-0.03,0.05
					c-0.17,0-0.17,0-0.27,0.03c0,0.01,0,0.01,0.07,0.17c-0.04,0.03-0.1,0.05-0.14,0.06c0,0.04-0.01,0.09-0.03,0.13
					c-0.2-0.01-0.23-0.03-0.31-0.09c0.02,0.03,0.05,0.08,0.08,0.11c-0.01,0.02-0.01,0.04-0.02,0.06c-0.04,0.02-0.09,0.03-0.13,0.04
					c-0.1-0.06-0.1-0.06-0.25-0.06c-0.01,0.02-0.02,0.04-0.03,0.06c0.04,0.03,0.09,0.07,0.13,0.1c-0.02,0.01-0.04,0.02-0.05,0.03
					c0.92,0.24,0.77,1.09,0.77,1.09c-0.43-0.03-0.84-0.15-1.26-0.19c0.02,0.03,0.05,0.08,0.08,0.11c0,0.01,0.05,1.06,0.19,1.1
					c-0.04,0.32-0.04,0.32-0.05,0.35c0.3-0.02,0.36-0.03,0.49,0c0.05,0.19,0.05,0.19,0.05,0.19l0.7-0.21
					c0.19-0.02,0.24-0.25,0.14-0.4c0.11-0.42,0.12-0.42,0.4-0.53c0-0.34,0-0.34,0.04-0.36c0.13-0.1,0.24,0.06,0.36,0.06
					c0.11-0.19,0.21-0.31,0.38-0.16c0.01,0.01,0.98,1.04,1.08,1.33c0.07,0.22,0.04,0.22-0.37,0.27c0.08,0.13,0.33,0.32,0.33,0.33
					c0.04-0.1-0.03-0.2-0.01-0.3c0.02,0,0.04,0.01,0.06,0.01c0.05-0.07,0.07-0.15,0.12-0.23c-0.06-0.2-0.06-0.2-0.06-0.27
					c0.02,0,0.04-0.01,0.06-0.01c0.02,0.03,0.06,0.07,0.08,0.1c-0.02-0.09-0.02-0.09-0.35-0.46c0-0.02,0.01-0.04,0.02-0.06
					c-0.15-0.06-0.28-0.11-0.69-0.89c0.02-0.03,0.06-0.06,0.09-0.07l0.93,1.01c0,0.01,0,0.01,0.28,0.74l0.3,0.63
					c0.01-0.04,0.01-0.08,0.01-0.12c0-0.15-0.06-0.29-0.09-0.43c-0.1-0.46-0.1-0.46-0.05-0.5c0.09,0.02,0.28,0.12,0.32,0.26
					c0.02-0.03,0.04-0.08,0.05-0.11c0.02,0,0.05,0,0.07,0c0.06-0.42-0.27-0.79-0.21-1.21c0.03-0.01,0.09-0.01,0.12,0.01
					c-0.01,0.02-0.02,0.04-0.03,0.05c0.06,0.06,0.08,0.08,0.15,0.12c0.02,0.07,0.02,0.07,0,0.19c0.06,0.06,0.09,0.14,0.14,0.21
					c0.22-0.12-0.11-0.33-0.04-0.5c0.1-0.02,0.12,0.01,0.14,0.08c-0.01,0.02-0.02,0.04-0.03,0.05c0.03,0.05,0.03,0.05,0.09,0.23
					c-0.01,0.01-0.03,0.03-0.04,0.05c0.16,0.36,0.52,0.64,0.5,1.08c-0.02,0.01-0.04,0.02-0.06,0.03c-0.19-0.12-0.18-0.51-0.49-0.43
					c0,0.03-0.02,0.08-0.05,0.1c-0.04-0.01-0.09-0.02-0.12-0.03c0.01,0.03,0.03,0.07,0.06,0.1c-0.07,0.06-0.17,0.02-0.24,0.06
					c-0.01,0.04-0.01,0.09-0.01,0.13c0.02,0,0.04,0.01,0.06,0.02c0.03,0.22,0.09,0.62,0.38,0.84c0.01-0.01,0.03-0.03,0.04-0.04
					c0-0.02,0-0.04,0-0.06c0.09,0.07,0.13,0.19,0.23,0.26c0.01-0.03,0.03-0.08,0.03-0.12c0.03,0.02,0.07,0.05,0.1,0.07
					c0.05,0.82,0.06,0.95-0.04,1.17c-0.13-0.01-0.15-0.04-0.19-0.15c-0.03,0-0.08,0.02-0.11,0.04c-0.42-0.03-0.39-0.6-0.83-0.61
					c-0.08,0.14-0.02,0.29-0.07,0.43c-0.02,0.01-0.04,0.02-0.06,0.02c-0.09-0.06-1.06-0.88-1.13-0.99
					c-0.02-0.03,0.01-0.09,0.03-0.13c0.05-0.08,0.05-0.08,0.01-0.56c-0.11-0.06-0.13-0.07-0.19-0.11c-0.09,0.06-0.09,0.06-0.44-0.02
					c-0.03,0.03-0.07,0.07-0.09,0.1c-0.46-0.17-0.84,0.3-1.3,0.15c-0.05,0-0.06,0-0.07,0c-0.13,0.02-0.17,0.03-0.32-0.12
					c-0.03-0.02-0.03-0.02-0.03-0.02c-0.02,0.01-0.04,0.03-0.06,0.05c-0.09,0.1-0.02,0.24-0.11,0.33c-0.11,0.12-0.3,0.12-0.4,0.25
					c-0.03,0.04-0.02,0.11-0.02,0.16c-0.03,0.52-0.03,0.52-0.18,0.58c-0.14,0.06-0.37,0.23-0.4,0.27c-0.08,0.12-0.7,1.11-0.7,1.11
					c-0.03,0.26,0.16,0.49,0.17,0.74c0,0.22-0.33,0.32-0.22,0.57c0.16,0.38,0.38,0.72,0.57,1.09c0.08,0.15,0.67,0.68,0.78,0.67
					c0.56-0.05,1.1-0.24,1.67-0.19c0.02,0,0.04,0.02,0.05,0.03c0.1,0.08,0.03,0.22,0.13,0.3c0.1,0.08,0.23,0.04,0.34,0.07
					c0.07,0.2,0.07,0.2-0.02,0.4c0.96,0.16,1.56,0.31,2,0.51c-0.43-0.19-1.05-0.35-2-0.51c-0.25,0.55-0.25,0.55-0.21,0.71
					c0.06,0.25,0.14,0.59-0.2,1.33c-0.16,0.34-0.46,0.59-0.67,0.91c-0.19,0.29-0.22,0.64-0.4,0.93c-0.7,1.15-0.72,1.17-0.83,1.27
					c-0.08,0.07-0.12,0.11-0.2,0.28c0.36,0.1,0.78-0.16,0.91-0.25l0.55-0.36l0.7-0.52c0.16-0.15,0.25-0.35,0.42-0.49
					c0.19-0.17,0.45-0.24,0.64-0.41c0.46-0.4,0.88-1.2,0.92-1.3c0.18-0.4,0.78-1.01,0.96-1.18c0.28-0.29,0.66-1.04,0.75-1.34
					c-0.07-0.02-0.07-0.02-0.2,0c-0.03-0.04-0.03-0.04,0.03-0.51c0.02-0.18-0.02-0.35-0.02-0.52c-0.01-0.45,0.09-0.9,0.04-1.36
					l-0.13-1.43c0.03,0.04,0.03,0.04,0.06,0.25c0.03-0.02,0.06-0.08,0.07-0.11c0.32,1.08-0.02,2.16,0.02,3.24
					c0.13-0.06,0.13-0.06,0.19-0.04c0.34-0.67,0.34-0.67,0.35-0.76c0,0.02-0.01,0.04-0.01,0.06c0.01-0.04,0.02-0.08,0.02-0.12
					l0.01-0.04l0.04-0.25l0,0c0.02-0.11,0.03-0.26,0.06-0.64c0,0.02,0,0.04,0,0.06C36.71,23.12,36.73,22.7,36.73,22.38z
					 M36.65,23.63c-0.02-0.05-0.02-0.05-0.01-0.45c-0.01,0.13-0.01,0.13-0.02,0.19c-0.03-0.88-0.02-0.96,0-1.07
					c0.06,0.08,0.08,0.73,0.07,1.1C36.67,23.54,36.67,23.57,36.65,23.63z"/>
				
					<radialGradient id="SVGID_00000139264403295146014730000008236571317195025537_" cx="74.3134" cy="14.9491" r="7.8906" gradientTransform="matrix(1.594 0 0 1.473 -94.4436 0)" gradientUnits="userSpaceOnUse">
					<stop  offset="0" style="stop-color:#D5FD00"/>
					<stop  offset="0.0837" style="stop-color:#CAF900"/>
					<stop  offset="0.2287" style="stop-color:#AEED00"/>
					<stop  offset="0.4165" style="stop-color:#81DA00"/>
					<stop  offset="0.5152" style="stop-color:#66CF00"/>
					<stop  offset="0.8727" style="stop-color:#248300"/>
					<stop  offset="1" style="stop-color:#359600"/>
				</radialGradient>
				<path style="fill:url(#SVGID_00000139264403295146014730000008236571317195025537_);" d="M36.37,19.79
					c0,0.01,0.01,0.03,0.01,0.05l0.06,0.26c0,0,0-0.01,0-0.01c0.02,0.16,0.06,0.31,0.09,0.46c-0.1-0.58-0.13-0.69-0.28-1.17
					c-0.03-0.07-0.05-0.14-0.07-0.21c0.15,0.47,0.15,0.49,0.22,0.74C36.39,19.86,36.38,19.83,36.37,19.79z"/>
				
					<radialGradient id="SVGID_00000021117250565143647650000004813509585853067180_" cx="74.318" cy="14.9491" r="7.8861" gradientTransform="matrix(1.594 0 0 1.473 -94.4436 0)" gradientUnits="userSpaceOnUse">
					<stop  offset="0" style="stop-color:#D5FD00"/>
					<stop  offset="0.0837" style="stop-color:#CAF900"/>
					<stop  offset="0.2287" style="stop-color:#AEED00"/>
					<stop  offset="0.4165" style="stop-color:#81DA00"/>
					<stop  offset="0.5152" style="stop-color:#66CF00"/>
					<stop  offset="0.8727" style="stop-color:#248300"/>
					<stop  offset="1" style="stop-color:#359600"/>
				</radialGradient>
				<path style="fill:url(#SVGID_00000021117250565143647650000004813509585853067180_);" d="M36.15,19.04
					c0.01,0.02,0.01,0.03,0.02,0.04c-0.02-0.06-0.04-0.11-0.06-0.17c0.01,0.02,0.01,0.04,0.02,0.06l-0.15-0.41l0,0.01
					c-0.02-0.05-0.02-0.05-0.03-0.06c0.06,0.16,0.13,0.37,0.23,0.66C36.17,19.13,36.16,19.09,36.15,19.04z"/>
				
					<radialGradient id="SVGID_00000074409238602252719730000011234940814174003078_" cx="74.317" cy="14.949" r="7.8871" gradientTransform="matrix(1.594 0 0 1.473 -94.4436 0)" gradientUnits="userSpaceOnUse">
					<stop  offset="0" style="stop-color:#D5FD00"/>
					<stop  offset="0.0837" style="stop-color:#CAF900"/>
					<stop  offset="0.2287" style="stop-color:#AEED00"/>
					<stop  offset="0.4165" style="stop-color:#81DA00"/>
					<stop  offset="0.5152" style="stop-color:#66CF00"/>
					<stop  offset="0.8727" style="stop-color:#248300"/>
					<stop  offset="1" style="stop-color:#359600"/>
				</radialGradient>
				<path style="fill:url(#SVGID_00000074409238602252719730000011234940814174003078_);" d="M36.62,21.05
					c-0.02-0.17-0.05-0.34-0.09-0.5c0.02,0.13,0.05,0.28,0.08,0.47C36.62,21.03,36.62,21.04,36.62,21.05z"/>
				
					<radialGradient id="SVGID_00000139253352797019062700000012339371990665891984_" cx="74.3147" cy="14.9493" r="7.8894" gradientTransform="matrix(1.594 0 0 1.473 -94.4436 0)" gradientUnits="userSpaceOnUse">
					<stop  offset="0" style="stop-color:#D5FD00"/>
					<stop  offset="0.0837" style="stop-color:#CAF900"/>
					<stop  offset="0.2287" style="stop-color:#AEED00"/>
					<stop  offset="0.4165" style="stop-color:#81DA00"/>
					<stop  offset="0.5152" style="stop-color:#66CF00"/>
					<stop  offset="0.8727" style="stop-color:#248300"/>
					<stop  offset="1" style="stop-color:#359600"/>
				</radialGradient>
				<path style="fill:url(#SVGID_00000139253352797019062700000012339371990665891984_);" d="M29.38,15.54
					C29.38,15.54,29.38,15.54,29.38,15.54c-0.05,0.1-0.09,0.26-0.09,0.26c-0.01,0.07-0.01,0.1,0.02,0.12
					c0.04,0.05,0.23,0.03,0.37-0.06c0.03-0.02,0.07-0.04,0.1-0.06c0.04-0.02,0.1-0.01,0.13-0.05c0.02-0.02,0.01-0.08-0.02-0.17
					c-0.02-0.04-0.04-0.07-0.06-0.1c-0.04-0.05-0.04-0.07-0.01-0.12c0.01-0.02,0.03-0.06,0.01-0.1c-0.01-0.04-0.05-0.08-0.08-0.09
					c-0.01-0.01-0.04-0.02-0.05-0.03c-0.04-0.02-0.09-0.03-0.14-0.05c-0.03-0.01-0.04-0.02-0.05-0.03c0,0,0,0-0.01,0
					c-0.01,0-0.3,0.07-0.12,0.16c0.01,0.01,0.02,0.01,0.04,0.01c-0.01,0.01-0.02,0.01-0.03,0.01c-0.12,0.05-0.15,0.08-0.17,0.11
					c-0.02,0.02-0.04,0.05-0.03,0.1c0.01,0.02,0.02,0.04,0.06,0.06C29.3,15.53,29.34,15.53,29.38,15.54z"/>
				
					<radialGradient id="SVGID_00000150793786210521996830000006704394890264183443_" cx="74.3157" cy="14.9484" r="7.8882" gradientTransform="matrix(1.594 0 0 1.473 -94.4436 0)" gradientUnits="userSpaceOnUse">
					<stop  offset="0" style="stop-color:#D5FD00"/>
					<stop  offset="0.0837" style="stop-color:#CAF900"/>
					<stop  offset="0.2287" style="stop-color:#AEED00"/>
					<stop  offset="0.4165" style="stop-color:#81DA00"/>
					<stop  offset="0.5152" style="stop-color:#66CF00"/>
					<stop  offset="0.8727" style="stop-color:#248300"/>
					<stop  offset="1" style="stop-color:#359600"/>
				</radialGradient>
				<path style="fill:url(#SVGID_00000150793786210521996830000006704394890264183443_);" d="M17.5,12.43
					C17.5,12.43,17.5,12.43,17.5,12.43C17.5,12.43,17.5,12.43,17.5,12.43c-0.03,0.01-0.25,0.13-0.27,0.15
					C17.24,12.58,17.26,12.58,17.5,12.43z"/>
				
					<radialGradient id="SVGID_00000175319231683399532530000011210239834015418507_" cx="74.3143" cy="14.9496" r="7.8898" gradientTransform="matrix(1.594 0 0 1.473 -94.4436 0)" gradientUnits="userSpaceOnUse">
					<stop  offset="0" style="stop-color:#D5FD00"/>
					<stop  offset="0.0837" style="stop-color:#CAF900"/>
					<stop  offset="0.2287" style="stop-color:#AEED00"/>
					<stop  offset="0.4165" style="stop-color:#81DA00"/>
					<stop  offset="0.5152" style="stop-color:#66CF00"/>
					<stop  offset="0.8727" style="stop-color:#248300"/>
					<stop  offset="1" style="stop-color:#359600"/>
				</radialGradient>
				<path style="fill:url(#SVGID_00000175319231683399532530000011210239834015418507_);" d="M35.41,20.51
					C35.42,20.51,35.42,20.51,35.41,20.51C35.42,20.51,35.42,20.51,35.41,20.51c0-0.01-0.1-0.14-0.1-0.14
					c-0.02-0.02-0.04-0.03-0.05-0.03c-0.04-0.01-0.07-0.01-0.11-0.02c-0.06-0.02-0.06-0.02-0.07-0.02c-0.03,0-0.04,0.02-0.02,0.05
					C35.11,20.42,35.35,20.53,35.41,20.51z"/>
				
					<radialGradient id="SVGID_00000031902900406283265370000002376945738838478269_" cx="74.3165" cy="14.9497" r="7.8875" gradientTransform="matrix(1.594 0 0 1.473 -94.4436 0)" gradientUnits="userSpaceOnUse">
					<stop  offset="0" style="stop-color:#D5FD00"/>
					<stop  offset="0.0837" style="stop-color:#CAF900"/>
					<stop  offset="0.2287" style="stop-color:#AEED00"/>
					<stop  offset="0.4165" style="stop-color:#81DA00"/>
					<stop  offset="0.5152" style="stop-color:#66CF00"/>
					<stop  offset="0.8727" style="stop-color:#248300"/>
					<stop  offset="1" style="stop-color:#359600"/>
				</radialGradient>
				<path style="fill:url(#SVGID_00000031902900406283265370000002376945738838478269_);" d="M33.11,18.94
					c0.02,0.02,0.07,0.01,0.08,0.05c0.01,0.04-0.01,0.07,0,0.11c0.01,0.03,0.03,0.03,0.04,0.04c0.03,0.01,0.16-0.03,0.16-0.13
					c0-0.01,0-0.03,0-0.04c-0.01-0.04-0.02-0.08-0.03-0.12c-0.01-0.04,0-0.09-0.01-0.13c-0.01-0.07-0.04-0.08-0.06-0.08
					c-0.04,0-0.15,0.04-0.18,0.1C33.08,18.77,33.08,18.9,33.11,18.94z"/>
				
					<radialGradient id="SVGID_00000019655183046673763320000001260819689302479277_" cx="74.3155" cy="14.9504" r="7.8891" gradientTransform="matrix(1.594 0 0 1.473 -94.4436 0)" gradientUnits="userSpaceOnUse">
					<stop  offset="0" style="stop-color:#D5FD00"/>
					<stop  offset="0.0837" style="stop-color:#CAF900"/>
					<stop  offset="0.2287" style="stop-color:#AEED00"/>
					<stop  offset="0.4165" style="stop-color:#81DA00"/>
					<stop  offset="0.5152" style="stop-color:#66CF00"/>
					<stop  offset="0.8727" style="stop-color:#248300"/>
					<stop  offset="1" style="stop-color:#359600"/>
				</radialGradient>
				<path style="fill:url(#SVGID_00000019655183046673763320000001260819689302479277_);" d="M32.45,18.92c0,0,0.05-0.06,0.05-0.06
					c0-0.02-0.03-0.04-0.1-0.04c-0.07-0.01-0.19,0.01-0.14,0.06c0.02,0.03,0.12,0.06,0.16,0.06C32.43,18.93,32.44,18.93,32.45,18.92
					z"/>
				
					<radialGradient id="SVGID_00000055691177282085224960000014192739559290104242_" cx="74.3203" cy="14.9497" r="7.8832" gradientTransform="matrix(1.594 0 0 1.473 -94.4436 0)" gradientUnits="userSpaceOnUse">
					<stop  offset="0" style="stop-color:#D5FD00"/>
					<stop  offset="0.0837" style="stop-color:#CAF900"/>
					<stop  offset="0.2287" style="stop-color:#AEED00"/>
					<stop  offset="0.4165" style="stop-color:#81DA00"/>
					<stop  offset="0.5152" style="stop-color:#66CF00"/>
					<stop  offset="0.8727" style="stop-color:#248300"/>
					<stop  offset="1" style="stop-color:#359600"/>
				</radialGradient>
				<path style="fill:url(#SVGID_00000055691177282085224960000014192739559290104242_);" d="M33.11,18.36
					c-0.01,0.01-0.02,0.02-0.02,0.04c0,0.01,0.01,0.02,0.02,0.03c0,0,0.1,0.11,0.11,0.12c0.02-0.01,0-0.18-0.02-0.27
					c0,0-0.03-0.13-0.05-0.15c0,0,0,0,0,0c0,0-0.01,0.01-0.01,0.01c0,0,0,0.01,0,0.01c-0.01,0.04,0.01,0.08,0.01,0.13
					C33.15,18.33,33.12,18.35,33.11,18.36z"/>
				
					<radialGradient id="SVGID_00000166675771475174329600000006241437655260757163_" cx="74.3117" cy="14.9484" r="7.8924" gradientTransform="matrix(1.594 0 0 1.473 -94.4436 0)" gradientUnits="userSpaceOnUse">
					<stop  offset="0" style="stop-color:#D5FD00"/>
					<stop  offset="0.0837" style="stop-color:#CAF900"/>
					<stop  offset="0.2287" style="stop-color:#AEED00"/>
					<stop  offset="0.4165" style="stop-color:#81DA00"/>
					<stop  offset="0.5152" style="stop-color:#66CF00"/>
					<stop  offset="0.8727" style="stop-color:#248300"/>
					<stop  offset="1" style="stop-color:#359600"/>
				</radialGradient>
				<path style="fill:url(#SVGID_00000166675771475174329600000006241437655260757163_);" d="M35.84,20.81c0,0,0.06,0.01,0.07,0.01
					c0.01-0.01,0.02-0.14,0.02-0.14c0,0,0-0.01,0-0.01c0-0.01,0-0.01-0.01-0.02c-0.02,0-0.03,0.01-0.05,0.01
					c-0.01,0-0.03,0-0.04-0.01c-0.02-0.01-0.03-0.02-0.04-0.03c-0.01-0.01-0.02,0-0.02,0.01c-0.02,0.02,0,0.12,0.04,0.16
					C35.82,20.81,35.83,20.81,35.84,20.81z"/>
				
					<radialGradient id="SVGID_00000108267348514789779720000010255975683720756916_" cx="74.3158" cy="14.9493" r="7.8891" gradientTransform="matrix(1.594 0 0 1.473 -94.4436 0)" gradientUnits="userSpaceOnUse">
					<stop  offset="0" style="stop-color:#D5FD00"/>
					<stop  offset="0.0837" style="stop-color:#CAF900"/>
					<stop  offset="0.2287" style="stop-color:#AEED00"/>
					<stop  offset="0.4165" style="stop-color:#81DA00"/>
					<stop  offset="0.5152" style="stop-color:#66CF00"/>
					<stop  offset="0.8727" style="stop-color:#248300"/>
					<stop  offset="1" style="stop-color:#359600"/>
				</radialGradient>
				<path style="fill:url(#SVGID_00000108267348514789779720000010255975683720756916_);" d="M16.22,13.32
					C16.22,13.32,16.22,13.32,16.22,13.32c0.01,0,0.02,0,0.02,0c0.07-0.05,0.14-0.1,0.21-0.15c0.13-0.08,0.27-0.15,0.4-0.24
					c0.03-0.02,0.03-0.02,0.07-0.09c0,0,0-0.01,0-0.01c-0.05,0.01-0.08,0.04-0.12,0.06c0.03-0.03,0.03-0.03,0.04-0.05
					c0,0,0,0-0.01,0c0,0-0.01,0-0.02,0c-0.16,0.06-0.16,0.06-0.87,0.6c-0.06,0.05-0.11,0.08-0.16,0.18c0,0,0,0,0.01,0
					C15.95,13.55,16.07,13.42,16.22,13.32z"/>
				
					<radialGradient id="SVGID_00000008132713901439478040000000506075111356303756_" cx="74.3154" cy="14.949" r="7.8886" gradientTransform="matrix(1.594 0 0 1.473 -94.4436 0)" gradientUnits="userSpaceOnUse">
					<stop  offset="0" style="stop-color:#D5FD00"/>
					<stop  offset="0.0837" style="stop-color:#CAF900"/>
					<stop  offset="0.2287" style="stop-color:#AEED00"/>
					<stop  offset="0.4165" style="stop-color:#81DA00"/>
					<stop  offset="0.5152" style="stop-color:#66CF00"/>
					<stop  offset="0.8727" style="stop-color:#248300"/>
					<stop  offset="1" style="stop-color:#359600"/>
				</radialGradient>
				<path style="fill:url(#SVGID_00000008132713901439478040000000506075111356303756_);" d="M17.21,12.69
					c0.02,0,0.07-0.03,0.13-0.06c0.22-0.11,0.33-0.16,0.33-0.16c0.07-0.03,0.14-0.04,0.21-0.08c0.05-0.03,0.26-0.16,0.26-0.16
					c0.04-0.03,0.04-0.03,0.05-0.04c-0.03,0-0.06,0.01-0.06,0.02c-0.06,0.03-0.12,0.08-0.18,0.11c0.08-0.07,0.17-0.13,0.24-0.2
					c0,0-0.01,0-0.01,0c0,0-0.26,0.12-0.26,0.15c-0.01,0.02-0.04,0.08-0.23,0.13c0,0,0,0,0,0c0-0.01,0.01-0.01,0.02-0.02
					c0,0,0,0,0,0c0.03-0.03,0.12-0.04,0.08-0.08c-0.01,0-0.52,0.23-0.53,0.3c0,0,0,0,0.25-0.13c-0.03,0.04-0.07,0.05-0.11,0.08
					c0.01,0,0.01,0,0.07-0.03c0.02-0.01,0.05-0.02,0.11-0.04c-0.06,0.04-0.24,0.13-0.35,0.17C17.19,12.67,17.19,12.69,17.21,12.69z"
					/>
				
					<radialGradient id="SVGID_00000013900135871280156200000001046787719930198199_" cx="74.3156" cy="14.9488" r="7.8885" gradientTransform="matrix(1.594 0 0 1.473 -94.4436 0)" gradientUnits="userSpaceOnUse">
					<stop  offset="0" style="stop-color:#D5FD00"/>
					<stop  offset="0.0837" style="stop-color:#CAF900"/>
					<stop  offset="0.2287" style="stop-color:#AEED00"/>
					<stop  offset="0.4165" style="stop-color:#81DA00"/>
					<stop  offset="0.5152" style="stop-color:#66CF00"/>
					<stop  offset="0.8727" style="stop-color:#248300"/>
					<stop  offset="1" style="stop-color:#359600"/>
				</radialGradient>
				<path style="fill:url(#SVGID_00000013900135871280156200000001046787719930198199_);" d="M15.77,13.88
					c0.04,0.01,0.07-0.02,0.1-0.02c0,0,0,0,0.01,0.01c-0.02,0.04-0.06,0.07-0.08,0.1c0.04,0,0.39-0.14,0.59-0.29
					c0.06-0.05,0.09-0.07,0.13-0.08c0,0,0.01,0,0.01,0c-0.02,0.03-0.02,0.03-0.02,0.04c0.02,0.02,0.15,0.04,0.15,0.04
					c0.12-0.04,0.12-0.04,0.25-0.16c0,0,0.01-0.01,0.01-0.01c-0.01,0-0.01,0-0.13,0.06c0.01-0.04,0.13-0.12,0.22-0.12
					c0.03,0,0.04,0,0.05-0.01c0,0,0.06-0.05,0.05-0.1c-0.07-0.03-0.09-0.1-0.06-0.14c0.03-0.03,0.3-0.34,0.29-0.36
					c-0.01-0.01-0.03-0.01-0.04-0.01c0,0,0-0.01-0.01-0.01c0,0,0,0,0,0c-0.12,0.1-0.21,0.23-0.36,0.31
					c-0.01-0.06,0.05-0.07,0.07-0.11c0,0-0.01-0.01-0.01-0.01c-0.06,0.02-0.1,0.06-0.17,0.07c0.02-0.02,0.05-0.04,0.06-0.07
					c0,0,0,0-0.01-0.01c-0.08,0.02-0.14,0.08-0.22,0.11c0.05-0.06,0.13-0.09,0.18-0.14c-0.05,0-0.69,0.39-0.67,0.46
					c0.01,0,0.02,0.01,0.02,0.01c-0.01,0.02-0.01,0.02-0.09,0.06c-0.13,0.07-0.13,0.09-0.13,0.1c0.01,0,0.02,0,0.02,0
					c0.07-0.01,0.13-0.06,0.2-0.07c0.05-0.01,0.1,0.01,0.15,0c-0.09,0.06-0.21,0.1-0.26,0.11C15.74,13.73,15.71,13.87,15.77,13.88z"
					/>
				
					<radialGradient id="SVGID_00000035504684967427951800000007253113330007338882_" cx="74.3121" cy="14.9536" r="7.8913" gradientTransform="matrix(1.594 0 0 1.473 -94.4436 0)" gradientUnits="userSpaceOnUse">
					<stop  offset="0" style="stop-color:#D5FD00"/>
					<stop  offset="0.0837" style="stop-color:#CAF900"/>
					<stop  offset="0.2287" style="stop-color:#AEED00"/>
					<stop  offset="0.4165" style="stop-color:#81DA00"/>
					<stop  offset="0.5152" style="stop-color:#66CF00"/>
					<stop  offset="0.8727" style="stop-color:#248300"/>
					<stop  offset="1" style="stop-color:#359600"/>
				</radialGradient>
				<path style="fill:url(#SVGID_00000035504684967427951800000007253113330007338882_);" d="M18.69,14.44
					c0.01-0.03-0.02-0.03-0.04-0.02c0,0-0.1,0.02-0.12,0.04c-0.03,0.04-0.03,0.1-0.01,0.11C18.55,14.6,18.67,14.48,18.69,14.44z"/>
				
					<radialGradient id="SVGID_00000013915850896514425290000016682300599624261005_" cx="74.3156" cy="14.9492" r="7.8889" gradientTransform="matrix(1.594 0 0 1.473 -94.4436 0)" gradientUnits="userSpaceOnUse">
					<stop  offset="0" style="stop-color:#D5FD00"/>
					<stop  offset="0.0837" style="stop-color:#CAF900"/>
					<stop  offset="0.2287" style="stop-color:#AEED00"/>
					<stop  offset="0.4165" style="stop-color:#81DA00"/>
					<stop  offset="0.5152" style="stop-color:#66CF00"/>
					<stop  offset="0.8727" style="stop-color:#248300"/>
					<stop  offset="1" style="stop-color:#359600"/>
				</radialGradient>
				<path style="fill:url(#SVGID_00000013915850896514425290000016682300599624261005_);" d="M18.53,14.23c0,0,0.02-0.01,0.02-0.02
					c0.01-0.02-0.01-0.05-0.02-0.06c-0.02-0.02-0.05-0.03-0.07-0.05c-0.03-0.03-0.05-0.08-0.09-0.11c-0.01,0-0.01-0.01-0.02-0.01
					c-0.04-0.02-0.09-0.02-0.13-0.04c-0.03-0.01-0.03-0.05-0.05-0.06c0,0-0.01,0-0.01,0c-0.04,0.02-0.16,0.18-0.17,0.18
					c-0.02,0.02-0.04,0.05-0.05,0.07l-0.14,0.2c0.08,0.01,0.08,0.01,0.09,0.04c0.01,0.05,0.01,0.05,0.02,0.05
					c0.01,0,0.03-0.02,0.08-0.05c0.06-0.05,0.17-0.13,0.29-0.15C18.36,14.21,18.44,14.25,18.53,14.23z"/>
				
					<radialGradient id="SVGID_00000160890420390178654170000001957292309278727308_" cx="74.3123" cy="14.9478" r="7.8851" gradientTransform="matrix(1.594 0 0 1.473 -94.4436 0)" gradientUnits="userSpaceOnUse">
					<stop  offset="0" style="stop-color:#D5FD00"/>
					<stop  offset="0.0837" style="stop-color:#CAF900"/>
					<stop  offset="0.2287" style="stop-color:#AEED00"/>
					<stop  offset="0.4165" style="stop-color:#81DA00"/>
					<stop  offset="0.5152" style="stop-color:#66CF00"/>
					<stop  offset="0.8727" style="stop-color:#248300"/>
					<stop  offset="1" style="stop-color:#359600"/>
				</radialGradient>
				<path style="fill:url(#SVGID_00000160890420390178654170000001957292309278727308_);" d="M18.3,14.37c0,0-0.18,0.04-0.24,0.08
					c-0.03,0.02-0.04,0.09-0.02,0.11c0.04,0.03,0.26-0.1,0.3-0.16C18.36,14.38,18.36,14.36,18.3,14.37z"/>
				
					<radialGradient id="SVGID_00000023259186508233127480000017060944326152184722_" cx="74.3173" cy="14.9491" r="7.8924" gradientTransform="matrix(1.594 0 0 1.473 -94.4436 0)" gradientUnits="userSpaceOnUse">
					<stop  offset="0" style="stop-color:#D5FD00"/>
					<stop  offset="0.0837" style="stop-color:#CAF900"/>
					<stop  offset="0.2287" style="stop-color:#AEED00"/>
					<stop  offset="0.4165" style="stop-color:#81DA00"/>
					<stop  offset="0.5152" style="stop-color:#66CF00"/>
					<stop  offset="0.8727" style="stop-color:#248300"/>
					<stop  offset="1" style="stop-color:#359600"/>
				</radialGradient>
				<path style="fill:url(#SVGID_00000023259186508233127480000017060944326152184722_);" d="M17.84,23.67
					c-0.07,0.03-0.03,0.12,0.01,0.14c0.03,0.01,0.21,0.04,0.2-0.03C18.05,23.74,17.93,23.65,17.84,23.67z"/>
				
					<radialGradient id="SVGID_00000025420086627644135650000001964003330836452025_" cx="74.3108" cy="14.9497" r="7.8932" gradientTransform="matrix(1.594 0 0 1.473 -94.4436 0)" gradientUnits="userSpaceOnUse">
					<stop  offset="0" style="stop-color:#D5FD00"/>
					<stop  offset="0.0837" style="stop-color:#CAF900"/>
					<stop  offset="0.2287" style="stop-color:#AEED00"/>
					<stop  offset="0.4165" style="stop-color:#81DA00"/>
					<stop  offset="0.5152" style="stop-color:#66CF00"/>
					<stop  offset="0.8727" style="stop-color:#248300"/>
					<stop  offset="1" style="stop-color:#359600"/>
				</radialGradient>
				<path style="fill:url(#SVGID_00000025420086627644135650000001964003330836452025_);" d="M30.2,15.49
					c-0.01,0-0.01,0.01-0.01,0.02l0.09,0.01C30.24,15.5,30.22,15.49,30.2,15.49z"/>
				
					<radialGradient id="SVGID_00000157276080217420713150000005029768850282811532_" cx="74.3155" cy="14.9492" r="7.8888" gradientTransform="matrix(1.594 0 0 1.473 -94.4436 0)" gradientUnits="userSpaceOnUse">
					<stop  offset="0" style="stop-color:#D5FD00"/>
					<stop  offset="0.0837" style="stop-color:#CAF900"/>
					<stop  offset="0.2287" style="stop-color:#AEED00"/>
					<stop  offset="0.4165" style="stop-color:#81DA00"/>
					<stop  offset="0.5152" style="stop-color:#66CF00"/>
					<stop  offset="0.8727" style="stop-color:#248300"/>
					<stop  offset="1" style="stop-color:#359600"/>
				</radialGradient>
				<path style="fill:url(#SVGID_00000157276080217420713150000005029768850282811532_);" d="M21.9,16.33
					c0.08-0.1,0.12-0.16,0.11-0.2c0,0-0.01,0-0.02,0c-0.04,0.01-0.16,0.11-0.26,0.21c-0.11,0.13-0.19,0.28-0.3,0.4
					c-0.06,0.07-0.14,0.12-0.19,0.19c-0.02,0.03,0,0.04,0,0.04c0.01,0.01,0.01,0.01,0.34,0.03c0.19,0.01,0.33,0.03,0.48,0.07
					c0.02,0,0.04,0.01,0.06,0.01c0.05,0,0.11-0.05,0.16,0c0.03,0.03,0.03,0.07,0.03,0.1c0,0.03,0.02,0.04,0.03,0.04
					c0.05-0.01,0.12-0.1,0.13-0.18c0.01-0.13-0.1-0.33-0.2-0.43c-0.06-0.05-0.06-0.05-0.25-0.02c-0.06,0.01-0.07,0-0.09-0.05
					c-0.03-0.09-0.05-0.1-0.08-0.12c-0.02-0.01-0.02-0.02-0.01-0.03C21.86,16.38,21.88,16.35,21.9,16.33z"/>
				
					<radialGradient id="SVGID_00000153680934506257257550000006365673889647456956_" cx="74.3157" cy="14.949" r="7.8882" gradientTransform="matrix(1.594 0 0 1.473 -94.4436 0)" gradientUnits="userSpaceOnUse">
					<stop  offset="0" style="stop-color:#D5FD00"/>
					<stop  offset="0.0837" style="stop-color:#CAF900"/>
					<stop  offset="0.2287" style="stop-color:#AEED00"/>
					<stop  offset="0.4165" style="stop-color:#81DA00"/>
					<stop  offset="0.5152" style="stop-color:#66CF00"/>
					<stop  offset="0.8727" style="stop-color:#248300"/>
					<stop  offset="1" style="stop-color:#359600"/>
				</radialGradient>
				<path style="fill:url(#SVGID_00000153680934506257257550000006365673889647456956_);" d="M29.62,14.74
					c0.01,0.06-0.04,0.12-0.01,0.18c0.02,0.01,0.06,0,0.16-0.06c0.03-0.02,0.06-0.04,0.09-0.03c0.09,0.05-0.02,0.14,0.02,0.21
					c0.07,0.14,0.14,0.16,0.24,0.18c0.15,0.04,0.17,0.04,0.2,0.06c0,0.02-0.01,0.05,0,0.07c0.04,0.07,0.11,0.11,0.15,0.18
					c0.02,0.07-0.08,0.03-0.15,0c-0.03-0.01-0.03-0.01-0.12-0.02c0.03,0.09,0.15,0.14,0.17,0.24c0.01,0.05-0.04,0.08-0.12,0.12
					c-0.02,0.01-0.05,0.02-0.04,0.04c0.01,0.01,0.04,0.05,0.23,0.04c0.08,0,0.24-0.01,0.25,0.04c0,0.05-0.03,0.04-0.09,0.04
					c-0.05,0-0.07,0.01-0.09,0.03c-0.04,0.03-0.05,0.09-0.08,0.12c-0.04,0.04-0.1,0.07-0.15,0.12c0,0,0,0.01,0,0.01
					c0.02,0.01,0.02,0.01,0.38-0.04c0.18-0.02,0.36-0.01,0.54-0.03c0,0,0,0,0.01,0l0.31-0.1c0,0,0-0.01,0-0.01
					c-0.06-0.06-0.15-0.01-0.21-0.03c-0.03-0.09,0.05-0.16,0.02-0.25c-0.06-0.15-0.13-0.15-0.18-0.15c-0.12,0.01-0.2-0.15-0.2-0.15
					c0,0,0-0.01,0-0.01c0.01,0,0.01,0,0.1,0.02c0.04,0.01,0.1,0.03,0.1,0.01c0,0,0,0,0,0c-0.01-0.01-0.02-0.02-0.05-0.05
					c-0.14-0.1-0.33-0.15-0.46-0.28c-0.06-0.06-0.11-0.13-0.19-0.18c-0.13-0.08-0.26-0.1-0.32-0.1c0,0,0,0,0,0
					c0.08-0.06,0.18-0.38-0.03-0.39c-0.04,0-0.08,0-0.11,0.01c-0.13,0.02-0.16,0.02-0.16-0.01c0-0.06,0.12-0.18,0.02-0.19
					c0,0-0.26,0-0.3,0.09c0,0.01,0,0.02,0,0.03C29.55,14.6,29.61,14.66,29.62,14.74z"/>
				
					<radialGradient id="SVGID_00000021798266531503885630000010911302042251924405_" cx="74.3178" cy="14.9485" r="7.8908" gradientTransform="matrix(1.594 0 0 1.473 -94.4436 0)" gradientUnits="userSpaceOnUse">
					<stop  offset="0" style="stop-color:#D5FD00"/>
					<stop  offset="0.0837" style="stop-color:#CAF900"/>
					<stop  offset="0.2287" style="stop-color:#AEED00"/>
					<stop  offset="0.4165" style="stop-color:#81DA00"/>
					<stop  offset="0.5152" style="stop-color:#66CF00"/>
					<stop  offset="0.8727" style="stop-color:#248300"/>
					<stop  offset="1" style="stop-color:#359600"/>
				</radialGradient>
				<path style="fill:url(#SVGID_00000021798266531503885630000010911302042251924405_);" d="M12.48,17.87
					c0.03-0.07,0.05-0.15,0.08-0.22c0.02-0.04,0.04-0.09,0.06-0.13c0,0,0-0.01,0.01-0.02c0,0,0.01-0.04-0.01-0.04c0,0-0.01,0-0.01,0
					c-0.07,0.05-0.15,0.39-0.14,0.41C12.47,17.88,12.48,17.87,12.48,17.87z"/>
				
					<radialGradient id="SVGID_00000103947749406020424690000005729827789078833553_" cx="74.3155" cy="14.9494" r="7.8888" gradientTransform="matrix(1.594 0 0 1.473 -94.4436 0)" gradientUnits="userSpaceOnUse">
					<stop  offset="0" style="stop-color:#D5FD00"/>
					<stop  offset="0.0837" style="stop-color:#CAF900"/>
					<stop  offset="0.2287" style="stop-color:#AEED00"/>
					<stop  offset="0.4165" style="stop-color:#81DA00"/>
					<stop  offset="0.5152" style="stop-color:#66CF00"/>
					<stop  offset="0.8727" style="stop-color:#248300"/>
					<stop  offset="1" style="stop-color:#359600"/>
				</radialGradient>
				<path style="fill:url(#SVGID_00000103947749406020424690000005729827789078833553_);" d="M27.93,13.14c0,0,0-0.01,0-0.01
					c-0.01-0.02-0.06-0.07-0.11-0.09c-0.01,0-0.02-0.01-0.03-0.01c-0.07-0.02-0.16,0-0.23-0.03c-0.05-0.02-0.09-0.07-0.15-0.06
					c-0.07,0.02-0.14,0.04-0.21,0.06c-0.07,0.02-0.14,0.01-0.21,0.03c-0.04,0.01-0.01,0.06-0.05,0.08c-0.04,0.02-0.08-0.02-0.11,0
					c-0.01,0-0.01,0.01-0.02,0.01c-0.01,0.06,0.04,0.12-0.03,0.17c-0.02-0.01-0.18-0.13-0.2-0.17c-0.06-0.1-0.31-0.17-0.38-0.12
					c0.02,0.05,0.09,0.04,0.12,0.08c-0.02,0.08-0.12,0.06-0.16,0.12c0.02,0.02,0.1,0,0.15,0c0.08-0.01,0.32,0.07,0.19,0.17
					c0.06,0.07,0.14,0.01,0.2,0.03c0.07,0.02,0.07,0.04,0.07,0.1c0.02,0.01,0.03,0.02,0.17,0c0.09-0.01,0.12-0.01,0.15-0.01
					c0.07,0,0.13,0.03,0.19,0.03c0.01,0,0.02,0,0.03,0c0.02,0,0.06,0,0.24-0.04c0.17-0.04,0.42-0.21,0.41-0.26
					c-0.01-0.03-0.04-0.05-0.05-0.08C27.9,13.14,27.9,13.14,27.93,13.14z"/>
				
					<radialGradient id="SVGID_00000051349379273186763740000005587829221370150837_" cx="74.3153" cy="14.9493" r="7.8885" gradientTransform="matrix(1.594 0 0 1.473 -94.4436 0)" gradientUnits="userSpaceOnUse">
					<stop  offset="0" style="stop-color:#D5FD00"/>
					<stop  offset="0.0837" style="stop-color:#CAF900"/>
					<stop  offset="0.2287" style="stop-color:#AEED00"/>
					<stop  offset="0.4165" style="stop-color:#81DA00"/>
					<stop  offset="0.5152" style="stop-color:#66CF00"/>
					<stop  offset="0.8727" style="stop-color:#248300"/>
					<stop  offset="1" style="stop-color:#359600"/>
				</radialGradient>
				<path style="fill:url(#SVGID_00000051349379273186763740000005587829221370150837_);" d="M18.07,23.4
					c0.07,0.09,0.53,0.12,0.53,0.07c0-0.03-0.58-0.65-0.58-0.65c-0.06-0.04-0.24-0.15-0.57-0.09c-0.19,0.06-0.32,0.17-0.32,0.18
					c0.02,0.02,0.17,0,0.28-0.06c0.17-0.09,0.28-0.04,0.29-0.01c-0.01,0.02-0.03,0.04-0.09,0.01c0,0,0,0-0.01,0
					c0.01,0.07,0.14,0.11,0.23,0.13c0.16,0.04,0.18,0.07,0.21,0.17c0.02,0.05,0.03,0.08,0.06,0.12c0.02,0.03,0.04,0.05,0.04,0.06
					C18.16,23.37,18.09,23.37,18.07,23.4z"/>
				
					<radialGradient id="SVGID_00000089540277547341216680000003316457696710885311_" cx="74.3146" cy="14.9494" r="7.887" gradientTransform="matrix(1.594 0 0 1.473 -94.4436 0)" gradientUnits="userSpaceOnUse">
					<stop  offset="0" style="stop-color:#D5FD00"/>
					<stop  offset="0.0837" style="stop-color:#CAF900"/>
					<stop  offset="0.2287" style="stop-color:#AEED00"/>
					<stop  offset="0.4165" style="stop-color:#81DA00"/>
					<stop  offset="0.5152" style="stop-color:#66CF00"/>
					<stop  offset="0.8727" style="stop-color:#248300"/>
					<stop  offset="1" style="stop-color:#359600"/>
				</radialGradient>
				<path style="fill:url(#SVGID_00000089540277547341216680000003316457696710885311_);" d="M18.79,23.91
					c0.05,0.02,0.01,0.1,0.08,0.11c0.12,0.01,0.1-0.13,0.2-0.14c0.01,0,0.02,0,0.06,0.01c0.18,0.03,0.48,0.04,0.48,0.04
					c0.01,0,0.02,0,0.03-0.02c0-0.05-0.04-0.09-0.03-0.14c0.04-0.15-0.8-0.22-0.86-0.21c-0.01,0-0.02,0-0.02,0.01
					c0,0.01,0,0.01,0.01,0.02c0.12,0.11,0.08,0.23,0.08,0.24c-0.02,0.01-0.08,0-0.18-0.01c-0.17-0.03-0.19-0.02-0.2-0.02
					c0,0,0,0.01,0.01,0.01C18.56,23.86,18.68,23.85,18.79,23.91z"/>
				
					<radialGradient id="SVGID_00000161604560517140158040000014426478781570719643_" cx="74.3154" cy="14.9491" r="7.8887" gradientTransform="matrix(1.594 0 0 1.473 -94.4436 0)" gradientUnits="userSpaceOnUse">
					<stop  offset="0" style="stop-color:#D5FD00"/>
					<stop  offset="0.0837" style="stop-color:#CAF900"/>
					<stop  offset="0.2287" style="stop-color:#AEED00"/>
					<stop  offset="0.4165" style="stop-color:#81DA00"/>
					<stop  offset="0.5152" style="stop-color:#66CF00"/>
					<stop  offset="0.8727" style="stop-color:#248300"/>
					<stop  offset="1" style="stop-color:#359600"/>
				</radialGradient>
				<path style="fill:url(#SVGID_00000161604560517140158040000014426478781570719643_);" d="M20.49,16.66
					c-0.07,0.03,0.09,0.1,0.13,0.11c0.22,0.09,0.29-0.01,0.29-0.01C20.94,16.71,20.57,16.65,20.49,16.66z"/>
				
					<radialGradient id="SVGID_00000132769114404049691050000004828418949413109376_" cx="74.3152" cy="14.9492" r="7.8886" gradientTransform="matrix(1.594 0 0 1.473 -94.4436 0)" gradientUnits="userSpaceOnUse">
					<stop  offset="0" style="stop-color:#D5FD00"/>
					<stop  offset="0.0837" style="stop-color:#CAF900"/>
					<stop  offset="0.2287" style="stop-color:#AEED00"/>
					<stop  offset="0.4165" style="stop-color:#81DA00"/>
					<stop  offset="0.5152" style="stop-color:#66CF00"/>
					<stop  offset="0.8727" style="stop-color:#248300"/>
					<stop  offset="1" style="stop-color:#359600"/>
				</radialGradient>
				<path style="fill:url(#SVGID_00000132769114404049691050000004828418949413109376_);" d="M34.12,29.21
					c-0.24,0.29-0.25,0.29-0.4,0.34c-0.13,0.04-0.17,0.1-0.36,0.36c-0.1,0.13-0.13,0.15-0.23,0.22c-0.29,0.21-0.68,0.67-0.69,0.71
					c0.1,0,0.1,0,0.5-0.35c0.33-0.29,0.61-0.61,0.92-0.91c0,0.01,0,0.01-0.03,0.05c0.01-0.01,0.01-0.01,0.04-0.04
					c0.07-0.09,0.3-0.37,0.33-0.47c0,0-0.01,0-0.01,0C34.18,29.14,34.18,29.14,34.12,29.21z"/>
				
					<radialGradient id="SVGID_00000120556165929251152440000017085306946837922689_" cx="74.3153" cy="14.9491" r="7.8887" gradientTransform="matrix(1.594 0 0 1.473 -94.4436 0)" gradientUnits="userSpaceOnUse">
					<stop  offset="0" style="stop-color:#359600"/>
					<stop  offset="0.0291" style="stop-color:#3A9900"/>
					<stop  offset="0.7016" style="stop-color:#A9E100"/>
					<stop  offset="1" style="stop-color:#D5FD00"/>
				</radialGradient>
				<path style="fill:url(#SVGID_00000120556165929251152440000017085306946837922689_);" d="M26.04,27.12
					c-0.02-0.08,0.1-0.19-0.01-0.25c-0.08-0.04-0.16,0.02-0.24,0c-0.26-0.05-0.43-0.26-0.67-0.33c-0.37-0.1-0.75-0.16-1.12-0.25
					c-0.22-0.07-0.24-0.3-0.37-0.44c-0.23-0.14-0.4-0.36-0.64-0.48c-0.31-0.16-0.69-0.11-1-0.28c-0.24-0.14-0.41-0.37-0.67-0.48
					c-0.04-0.02-0.09-0.03-0.13-0.04c-1.26-0.18-2.26-0.31-2.38,0.61c-0.37-0.25-1.34,0.14-1.25-0.43c0.05-0.35-0.11-0.6-0.11-0.61
					c-0.29-0.14-0.59,0.01-0.89-0.01c0.1-0.3,0.1-0.3,0.03-0.44c0.13-0.28,0.13-0.28,0.17-0.53c-0.06-0.05-0.55-0.41-0.65,0.62
					c-0.17-0.01-0.28,0.21-0.47,0.11c-0.46-0.24-0.61-0.55-0.66-0.71c-0.06-0.2,0.12-0.36,0.11-0.54c0-0.12-0.18-0.18-0.13-0.32
					c0.06-0.18,0.42-0.51,0.5-0.57c0.15-0.11,0.73,0.01,0.73,0.02c0.02-0.01,0.04-0.03,0.05-0.04c-0.04-0.04-0.11-0.06-0.16-0.1
					c0-0.02,0.01-0.04,0.01-0.06c0.12-0.06,1.03-0.14,1.04-0.13c0.39,0.19,0.15,0.7,0.53,0.91c0.45-0.43-0.27-0.82-0.19-1.26
					c0.08-0.45,0.57-0.56,0.84-0.85c-0.01,0-0.01,0-0.01,0c-0.01-0.01-0.03-0.03-0.04-0.04c0-0.02,0.01-0.04,0.01-0.05
					c0.02,0,0.04-0.01,0.06-0.02c0-0.02,0.01-0.05,0.01-0.07c-0.02-0.01-0.04-0.01-0.06-0.02l0.09-0.83c0.01,0.12,0.01,0.5,0.01,0.5
					c0.04-0.03,0.04-0.03,0.08-0.57c0.03,0.06,0.09,0.1,0.1,0.17c0.08-0.13,0.05-0.3,0.18-0.41c0,0,0.53-0.27,0.57-0.27
					c0.05-0.43,0.05-0.43,0.31-0.65c0.04,0,0.04,0,0.8-0.4c-0.01,0.01-0.02,0.03-0.03,0.05c0.04,0.01,0.09,0.03,0.14,0.03
					c0,0.02,0,0.04,0,0.06C20.1,18,20.1,18,20.1,18.09c0.3,0,1.21-0.48,1.04-0.86c-0.13,0.08-0.13,0.22-0.21,0.32
					c-0.1-0.03-0.18-0.05-0.24-0.06c0.07-0.01,0.12-0.08,0.12-0.08c0,0,0,0,0,0c0,0,0,0,0,0c-0.01,0-0.01,0-0.02,0
					c-0.12,0.02-0.18-0.01-0.21-0.02c-0.06-0.03-0.07-0.06-0.06-0.1c0-0.02,0-0.02,0-0.02c0,0,0,0,0,0
					c-0.01,0.01-0.04,0.09-0.01,0.16c-0.11-0.05-0.13-0.1-0.18-0.23c-0.11-0.04-0.11-0.04-0.16-0.1c0.16-0.04,0.27-0.07,0.31-0.22
					c-0.08-0.07-0.08-0.07-1.22,0.58c0.78-0.75,0.78-0.75,1.59-0.98c0.18,0.12,1-0.26,1.13-0.47c-0.04-0.09-0.04-0.09,0.02-0.23
					c-0.01-0.02-0.03-0.04-0.04-0.05c-0.07-0.01-0.13-0.03-0.2-0.04c-0.06,0-0.06,0-0.06,0c-0.04,0-0.16,0.01-0.38,0.14
					c-0.01-0.01-0.02-0.04-0.02-0.05c0.07-0.09,0.1-0.1,0.34-0.18c-0.47,0.04-0.93,0.07-1.44,0.12c0.47-0.05,0.87-0.08,1.44-0.12
					c0.01-0.01,0.03-0.01,0.04-0.02c0.01-0.03-0.18-0.18-0.42-0.12c-0.05,0.01-0.05,0.01-0.08,0c-0.02-0.04,0.02-0.09-0.01-0.13
					c-0.05-0.06-0.13-0.04-0.18-0.1c-0.02-0.02-0.01-0.04,0.03-0.09c0.05-0.07,0.05-0.07-0.06-0.26c-0.29-0.48-0.29-0.48-0.43-0.23
					c-0.02,0.04,0.03,0.08,0,0.12c-0.04,0.04-0.12,0-0.16,0.05c-0.09,0.11-0.09,0.11-0.12,0.12c-0.16,0.04-0.27-0.07-0.4-0.1
					c-0.02-0.04,0.03-0.3,0.11-0.36c-0.08-0.02-0.16,0.01-0.25-0.02c-0.02-0.01-0.03-0.02-0.06-0.06c-0.01-0.01-0.03-0.04-0.23-0.1
					c-0.04-0.01-0.05-0.01-0.09-0.01c-0.18,0.04-0.37,0.01-0.55,0.08c0.03,0.16-0.17,0.29-0.03,0.46c-0.03,0.08-0.13,0.1-0.14,0.19
					c-0.01,0.1,0.11,0.16,0.11,0.26c0,0,0.01,0.4-0.24,0.46c-0.05,0.01-0.18,0.05-0.15,0.13c-0.01,0.01-0.02,0.02-0.07,0.06
					c-0.07,0.23,0.1,0.52-0.19,0.7c-0.09-0.13-0.25-0.16-0.37-0.24c0.07-0.18,0.04-0.25,0-0.33c0.02-0.01,0.05-0.04,0.07-0.05
					c0-0.01,0-0.03,0-0.04c-0.02,0-0.05,0-0.07,0c-0.12-0.1-0.26-0.01-0.39-0.04c-0.13-0.03-0.19-0.15-0.32-0.19
					c-0.02-0.01-0.05-0.01-0.07-0.02c-0.11-0.02-0.19,0.06-0.29,0.08c-0.03-0.03-0.03-0.03-0.08-0.26c-0.02-0.08-0.02-0.08-0.23-0.1
					c-0.05-0.25,0.62-0.71,0.91-0.91c-0.03-0.08-0.13-0.04-0.18-0.08c0.55-0.09,0.55-0.09,0.87-0.4c-0.21,0.03-0.26,0.04-0.43-0.05
					c0.21-0.07,0.47,0.05,0.63-0.17c-0.02-0.01-0.04-0.02-0.06-0.02c0,0,0.1-0.12,0.21-0.05c0.36-0.12,0.36-0.12,0.45-0.2
					c0.02-0.02,0.04-0.04,0.06-0.06c0.04-0.06-0.03-0.13,0.01-0.19c0.03-0.06,0.11-0.05,0.15-0.09c0.02-0.03,0.03-0.06,0.04-0.09
					c0,0-0.31-0.29-0.41,0.12c-0.19,0.1-0.32,0.5-0.55,0.32c0.02-0.12,0.29-0.2,0.17-0.33c-0.14,0.05-0.2,0.18-0.31,0.27
					c-0.03-0.07,0.12-0.24,0.12-0.25c-0.01,0-0.01,0-0.14-0.01c0.22-0.33,0.22-0.33,0.22-0.37c-0.01-0.01-0.02-0.02-0.03-0.02
					c0.13-0.18,0.13-0.18,0.72-0.51c-0.04,0-0.04,0-0.11,0.01c-0.48,0.1-1.12,0.93-1.13,0.94c0,0.01,0.01,0.02,0.02,0.03
					c0.05,0,0.1-0.01,0.15-0.01c0,0.01,0.01,0.02,0.01,0.03c-0.11,0.05-0.12,0.06-0.17,0.1c0,0.02,0,0.02,0,0.02h0
					c0.01,0,0.02,0,0.03,0.01c-0.1,0.16-0.32,0.22-0.41,0.39c-0.08-0.07-0.08-0.07,0.07-0.22c-0.08-0.02-0.08-0.02-0.36,0.18
					c-0.02,0.01-0.11,0.06-0.44,0.05c-0.02-0.03-0.02-0.07-0.04-0.1c-0.27,0.06-0.35,0.21-0.51,0.5c-0.03-0.07,0.04-0.13,0.03-0.2
					c-0.15,0.02-0.27,0.13-0.43,0.11c0.07-0.06,0.17-0.08,0.2-0.18c-0.01,0-0.02-0.01-0.03-0.01c-0.04,0.02-0.04,0.02-0.15,0.01
					c-0.01-0.02-0.03-0.03-0.05-0.05c-0.07,0.01-0.12,0.07-0.17,0.11c0.01-0.02,0.03-0.04,0.04-0.06c-0.04,0.03-0.04,0.03-0.1,0.08
					c0.03-0.07,0.03-0.07,0.14-0.18c-0.18,0.15-0.18,0.15-0.5,0.4c0,0,0,0,0,0c0.1-0.09,0.21-0.17,0.32-0.26
					c0,0-0.23,0.16-0.52,0.43c0.01-0.02,0.03-0.04,0.04-0.05c-0.18,0.19-0.42,0.43-0.59,0.62c-0.77,0.93-0.79,0.95-1.13,1.47l0,0
					c0.01-0.01,0.01-0.02,0.02-0.02c-0.23,0.53-0.23,0.53-0.26,0.68c-0.01,0.04-0.03,0.1-0.05,0.14c0.01,0.02,0.02,0.04,0.03,0.05
					c-0.07,0.21-0.07,0.21-0.15,0.57c-0.02,0.09,0,0.17,0.03,0.24c-0.01,0-0.03-0.01-0.06-0.01c-0.01,0-0.02,0-0.02-0.01
					c0,0-0.01-0.01-0.01-0.03c0-0.01-0.02-0.06-0.03-0.06c0,0,0,0,0,0c0,0-0.03,0.12,0,0.23c0.03,0.08,0.09,0.07,0.09,0.07
					c0.02,0,0.03-0.02,0.04-0.04c0.01-0.02,0.01-0.04,0.01-0.05c0-0.01,0-0.03,0-0.04c0,0,0,0,0,0c0.03,0.08,0.06,0.16,0.06,0.25
					c-0.03-0.02-0.07-0.04-0.11-0.05c-0.38,0.44-0.52,2.66-0.26,3.08c0.03,0.01,0.03,0.01,0.59,1.06c-0.04,0-0.09,0-0.13,0
					c0.07,0.13,0.56,0.72,0.56,0.72c0.04-0.06,0.09-0.12-0.13-0.42c-0.1-0.13-0.22-0.29-0.42-1.02c0.25,0.17,0.27,0.28,0.31,0.41
					c0.02,0.1,0.05,0.21,0.1,0.28c0.1,0.15,0.22,0.28,0.33,0.43c0.14,0.19,0.37,0.29,0.49,0.5c0.09,0.17,0.05,0.39,0.24,0.51
					c0.03,0.02,0.07,0.03,0.1,0.04c0.05,0.02,0.12,0.06,0.18,0.07c0.2,0.05,0.4,0.08,0.6,0.12c0.2,0.05,0.42-0.06,0.62,0.04
					c0.46,0.24,0.46,0.24,0.62,0.26c0.02,0,0.06,0.01,0.08,0.01c0.72,0.09,1.02,0.92,1.81,0.89c0.35-0.54,0.57,0.11,0.64,0.41
					c0.02,0.1,0.02,0.1-0.17,0.5c0,0.01-0.19,0.73-0.11,0.86c0.01,0.02,0.03,0.05,0.05,0.07c0.26,0.35,1.32,1.32,1.33,1.33
					c0.26,0.21,0.61,0.25,0.88,0.44c0.21,0.14,0.36,0.41,0.44,0.76c0,0.02,0.41,1.7,1.12,2.62c0.9,1.17,1.77,1.04,1.77,1.04
					c-0.84-0.4-0.84-0.4-0.76-0.73c-0.12-0.11-0.12-0.11-0.34-0.67c0.03-0.01,0.03-0.01,0.19-0.01c0-0.02,0-0.02-0.19-0.26
					c0.15-0.12,0.15-0.12,0.14-0.22c0.01-0.01,0.03-0.01,0.04-0.02c0.26,0.07,0.35-0.12,0.28-0.22l-0.08-0.1
					c0.59-0.01,0.84-1.33,0.84-1.35c0.08-0.17,0.31-0.27,0.4-0.3c0.21-0.08,0.21-0.31,0.36-0.43c0.07-0.06,0.13-0.06,0.18-0.05
					c0.09,0.01,0.09,0.01,0.1-0.06c0.02-0.17,0.01-0.33,0.02-0.5c0-0.09-0.05-0.19,0.01-0.28c0.08-0.1,0.11-0.14,0.05-0.21
					c-0.01-0.01-0.02-0.03-0.02-0.05c0.49-0.17,0.67-0.66,0.67-0.67c0-0.01,0-0.01,0-0.02C26.1,27.21,26.05,27.17,26.04,27.12z
					 M13.66,16.8c0.17-0.05,0.36-0.1,0.55-0.15C14.02,16.7,13.83,16.75,13.66,16.8z M19.26,26.22c0.22-0.03,0.45-0.05,0.69-0.08
					C19.73,26.17,19.5,26.19,19.26,26.22z M24.26,29.11c-0.01-0.08-0.04-0.34-0.08-0.81c0.03,0.27,0.06,0.54,0.09,0.82
					C24.27,29.12,24.26,29.12,24.26,29.11z M24.03,26.58c0,0.01,0,0.03,0,0.04C24.03,26.61,24.03,26.6,24.03,26.58z"/>
				
					<radialGradient id="SVGID_00000121979504618151483230000008605409138974326425_" cx="74.3149" cy="14.9493" r="7.8873" gradientTransform="matrix(1.594 0 0 1.473 -94.4436 0)" gradientUnits="userSpaceOnUse">
					<stop  offset="0" style="stop-color:#D5FD00"/>
					<stop  offset="0.0837" style="stop-color:#CAF900"/>
					<stop  offset="0.2287" style="stop-color:#AEED00"/>
					<stop  offset="0.4165" style="stop-color:#81DA00"/>
					<stop  offset="0.5152" style="stop-color:#66CF00"/>
					<stop  offset="0.8727" style="stop-color:#248300"/>
					<stop  offset="1" style="stop-color:#359600"/>
				</radialGradient>
				<path style="fill:url(#SVGID_00000121979504618151483230000008605409138974326425_);" d="M19.9,23.97
					c-0.07,0.04,0.02,0.12,0.1,0.14c0.06,0.01,0.25-0.02,0.26-0.03c0-0.01-0.01-0.03-0.15-0.07C19.96,23.96,19.94,23.96,19.9,23.97z
					"/>
			</g>
		</g>
		<g style="opacity:0.3;clip-path:url(#SVGID_00000139274340059339924940000010416076116673638792_);">
			<path class="st61" d="M24.04,9.33c6.82,0,12.36,5.37,12.36,11.96c0,6.6-5.55,11.96-12.36,11.96s-12.36-5.37-12.36-11.96
				C11.67,14.69,17.22,9.33,24.04,9.33 M24.04,8.33c-7.38,0-13.36,5.8-13.36,12.96s5.98,12.96,13.36,12.96
				c7.38,0,13.36-5.8,13.36-12.96S31.42,8.33,24.04,8.33L24.04,8.33z"/>
		</g>
	</g>
</g>
</svg>
