<?xml version="1.0" encoding="utf-8"?>
<!-- Generator: Adobe Illustrator 27.0.0, SVG Export Plug-In . SVG Version: 6.00 Build 0)  -->
<svg version="1.0" xmlns="http://www.w3.org/2000/svg" xmlns:xlink="http://www.w3.org/1999/xlink" x="0px" y="0px"
	 viewBox="0 0 318 42" style="enable-background:new 0 0 318 42;" xml:space="preserve">
<style type="text/css">
	.st0{display:none;}
	.st1{fill:#FFFFFF;}
	.st2{fill:#FF0000;}
	.st3{fill:#3366CC;}
	.st4{clip-path:url(#SVGID_00000045579592608597819200000013452757905677622957_);}
	.st5{fill:url(#SVGID_00000072253133455539387710000006462630262319025303_);}
	.st6{fill:url(#SVGID_00000181055770161711991130000015281561556579273612_);}
	.st7{fill:url(#SVGID_00000096033385320246536220000002458208808916019591_);}
	.st8{fill:url(#SVGID_00000160891009485997735530000013861742787074481845_);}
	.st9{fill:url(#SVGID_00000129904508408145570360000009796193404422029198_);}
	.st10{fill:url(#SVGID_00000039811926899505727160000010296647472360172170_);}
	.st11{fill:url(#SVGID_00000070102710363993479910000006945097412819703208_);}
	.st12{fill:url(#SVGID_00000021828451412175708880000015674078441758718872_);}
	.st13{fill:url(#SVGID_00000158003162700525336920000014970353158093251494_);}
	.st14{fill:url(#SVGID_00000045595052119202685560000007597718931674098096_);}
	.st15{fill:url(#SVGID_00000180365816474638514440000012840814932767798954_);}
	.st16{fill:url(#SVGID_00000093895632788723478510000003224660215653886393_);}
	.st17{fill:url(#SVGID_00000011713938548099086830000008430281031525407880_);}
	.st18{fill:url(#SVGID_00000116201332666392738890000008268340471272572571_);}
	.st19{fill:url(#SVGID_00000134937681587606662010000014824593653231659925_);}
	.st20{fill:url(#SVGID_00000178911571270565068760000002739747252190054528_);}
	.st21{fill:url(#SVGID_00000072994309397400000730000000126333677590629557_);}
	.st22{fill:url(#SVGID_00000169537622830007491870000007495157646957550212_);}
	.st23{fill:url(#SVGID_00000134955788577162594730000015605341291654924980_);}
	.st24{fill:url(#SVGID_00000157290314106792618300000007022312301221047698_);}
	.st25{fill:url(#SVGID_00000012453258622816675420000008888502275446056340_);}
	.st26{fill:url(#SVGID_00000032616414389159438840000006018026094460015232_);}
	.st27{fill:url(#SVGID_00000062174791952055297190000004340574138553468584_);}
	.st28{fill:url(#SVGID_00000072992761576577726250000003568998335008751027_);}
	.st29{fill:url(#SVGID_00000132769216702043802040000005393230372093895581_);}
	.st30{fill:url(#SVGID_00000056425089210053493230000003808194985249226119_);}
	.st31{fill:url(#SVGID_00000024707002798883796230000008456264598358336400_);}
	.st32{fill:url(#SVGID_00000094591879570106761330000013555143778831260850_);}
	.st33{fill:url(#SVGID_00000101816654395413624890000005862432462711906697_);}
	.st34{fill:url(#SVGID_00000175319101128998153030000016247109736925912215_);}
	.st35{fill:url(#SVGID_00000147916253326359686670000006822464420267040646_);}
	.st36{fill:url(#SVGID_00000080897578110805932550000012444672452604917948_);}
	.st37{fill:url(#SVGID_00000140002942447468847230000004218611928962765233_);}
	.st38{fill:url(#SVGID_00000183218613792390601340000012357246150995261615_);}
	.st39{fill:url(#SVGID_00000008842080834165125740000017498747544237272485_);}
	.st40{fill:url(#SVGID_00000101797917624667055580000012994276600770748861_);}
	.st41{fill:url(#SVGID_00000060733008044934622230000015189570286731892415_);}
	.st42{fill:url(#SVGID_00000060018301681768777240000018207884063149450130_);}
	.st43{fill:url(#SVGID_00000153675142165661116960000011989699120258569371_);}
	.st44{fill:url(#SVGID_00000090274166042232176830000000840627899045731252_);}
	.st45{fill:url(#SVGID_00000163073314005670509180000014931167938115601583_);}
	.st46{fill:url(#SVGID_00000132066602986520308510000010350576648729930915_);}
	.st47{fill:url(#SVGID_00000135650556437442184890000015428331298315135164_);}
	.st48{fill:url(#SVGID_00000112611905961839718110000014787067899638066877_);}
	.st49{fill:url(#SVGID_00000112611767316680959990000003100332971061836931_);}
	.st50{fill:url(#SVGID_00000098902375883348411590000004659880821634454953_);}
	.st51{fill:url(#SVGID_00000025408621426981462710000003374532735244555417_);}
	.st52{fill:url(#SVGID_00000010273924396593962210000005712446136125139862_);}
	.st53{fill:url(#SVGID_00000014626735970871978790000016812251431294876840_);}
	.st54{fill:url(#SVGID_00000155840326207107917620000014676740052019563964_);}
	.st55{fill:url(#SVGID_00000103986444206049523090000010914750046419301252_);}
	.st56{fill:url(#SVGID_00000021807028937953890740000010652577028521711249_);}
	.st57{fill:url(#SVGID_00000000196176327152640250000004169163532117537961_);}
	.st58{fill:url(#SVGID_00000068661360373198064810000015026096706633064349_);}
	.st59{fill:url(#SVGID_00000011718575646904813470000006305088003390895245_);}
	.st60{opacity:0.3;clip-path:url(#SVGID_00000045579592608597819200000013452757905677622957_);}
	.st61{fill:#303030;}
	.st62{fill:#3479E8;}
	.st63{clip-path:url(#SVGID_00000101813605572056555860000013611338865844793519_);}
	.st64{fill:url(#SVGID_00000142867354908941996250000012809067027522797727_);}
	.st65{fill:url(#SVGID_00000148642376433515415690000011497306546146146958_);}
	.st66{fill:url(#SVGID_00000179625685798703093380000012170971410385865091_);}
	.st67{fill:url(#SVGID_00000175321430885469300730000011830425304415202479_);}
	.st68{fill:url(#SVGID_00000089538225653390511970000001171726052905196733_);}
	.st69{fill:url(#SVGID_00000042725142975115329040000001822948088683700120_);}
	.st70{fill:url(#SVGID_00000101819952620843625530000012623315115550296483_);}
	.st71{fill:url(#SVGID_00000178892612336963400790000007126109046679245759_);}
	.st72{fill:url(#SVGID_00000096029121999799523630000003348628075733808776_);}
	.st73{fill:url(#SVGID_00000141447639827723824080000007258555030623100811_);}
	.st74{fill:url(#SVGID_00000150811770981317048490000002318968224051348371_);}
	.st75{fill:url(#SVGID_00000118363267153928905680000005424450525379680425_);}
	.st76{fill:url(#SVGID_00000142855382559522774720000000630144568598254234_);}
	.st77{fill:url(#SVGID_00000097496708312031937990000011914807086737573786_);}
	.st78{fill:url(#SVGID_00000092424173695438712330000010207242272145076413_);}
	.st79{fill:url(#SVGID_00000163751220920251305830000001733859166226896017_);}
	.st80{fill:url(#SVGID_00000178903397117964789350000000995406207915707823_);}
	.st81{fill:url(#SVGID_00000023263926445923748790000007422826342142661543_);}
	.st82{fill:url(#SVGID_00000057150531548647995270000005714426866793213573_);}
	.st83{fill:url(#SVGID_00000175298590981447171760000012792011289337804476_);}
	.st84{fill:url(#SVGID_00000127026547729064282280000004724722768100125093_);}
	.st85{fill:url(#SVGID_00000140002028291772124270000015262791512827643797_);}
	.st86{fill:url(#SVGID_00000134962658238925032540000010970858497786660768_);}
	.st87{fill:url(#SVGID_00000157310077347752492030000006190906305692573829_);}
	.st88{fill:url(#SVGID_00000113336767267474951940000014205010855473544631_);}
	.st89{fill:url(#SVGID_00000069385757820227010290000005035231185971226277_);}
	.st90{fill:url(#SVGID_00000093891154714224225860000006726320038870532480_);}
	.st91{fill:url(#SVGID_00000178890027634485937760000005498157792940290745_);}
	.st92{fill:url(#SVGID_00000158716455652404477710000000350832009786908822_);}
	.st93{fill:url(#SVGID_00000006692644011601446850000014003273356511934374_);}
	.st94{fill:url(#SVGID_00000149359832987402980180000001428586335298206392_);}
	.st95{fill:url(#SVGID_00000069374651550087852210000014952665761669387660_);}
	.st96{fill:url(#SVGID_00000083060039162586135870000013579786119501311391_);}
	.st97{fill:url(#SVGID_00000083054331949625071130000001299614185109906101_);}
	.st98{fill:url(#SVGID_00000092427296575646178680000005886056870633442720_);}
	.st99{fill:url(#SVGID_00000168822075226384581790000007611968365754613901_);}
	.st100{fill:url(#SVGID_00000053536654579589222670000009638486727694977717_);}
	.st101{fill:url(#SVGID_00000057833915918769681770000006776150495792846250_);}
	.st102{fill:url(#SVGID_00000084529073562952508730000001518466258537874568_);}
	.st103{fill:url(#SVGID_00000021088638413127397500000011921783463387930038_);}
	.st104{fill:url(#SVGID_00000181807932482938939850000001710270113995134369_);}
	.st105{fill:url(#SVGID_00000097463572339140993480000010620019363388855441_);}
	.st106{fill:url(#SVGID_00000024721400317438693510000009026673463187372465_);}
	.st107{fill:url(#SVGID_00000132772312240963799130000017591154212760716180_);}
	.st108{fill:url(#SVGID_00000011030931609707471440000017177281184112927409_);}
	.st109{fill:url(#SVGID_00000052094974478529830340000010042770942510902436_);}
	.st110{fill:url(#SVGID_00000098929845089767062440000011954292956543720578_);}
	.st111{fill:url(#SVGID_00000079448611076139219700000009161772582455886743_);}
	.st112{fill:url(#SVGID_00000043440776193131644040000008153876234080590215_);}
	.st113{fill:url(#SVGID_00000159463812605888450150000000424542324667178136_);}
	.st114{fill:url(#SVGID_00000049203675669485494810000009454125314515197859_);}
	.st115{fill:url(#SVGID_00000026132038662944010220000013639711138987600260_);}
	.st116{fill:url(#SVGID_00000054949709591438424170000003093204550861805954_);}
	.st117{fill:url(#SVGID_00000030477359817188537370000010681029349253415102_);}
	.st118{fill:url(#SVGID_00000099637020040529242630000006016329941023342525_);}
	.st119{opacity:0.3;clip-path:url(#SVGID_00000101813605572056555860000013611338865844793519_);}
</style>
<g id="Orignal" class="st0">
</g>
<g id="Vector">
	<path class="st1" d="M314.5,42H3.5C1.57,42,0,40.43,0,38.5v-35C0,1.57,1.57,0,3.5,0h311c1.93,0,3.5,1.57,3.5,3.5v35
		C318,40.43,316.43,42,314.5,42z"/>
	<g>
		<path class="st2" d="M32.75,30.23H13.04c-1.54,0-2.79-1.25-2.79-2.79V15.43c0-1.54,1.25-2.79,2.79-2.79h19.71
			c1.54,0,2.79,1.25,2.79,2.79v12.01C35.53,28.98,34.29,30.23,32.75,30.23z"/>
		<polygon class="st1" points="20.4,25.37 27.1,21.44 20.4,17.5 		"/>
	</g>
	<g>
		<g>
			<path d="M125.55,16.43h2.07l2.47,4.75l2.47-4.75h2.06l-3.59,6.33v3.69h-1.87v-3.69L125.55,16.43z"/>
			<path d="M136.15,18.6c0.37-0.75,0.89-1.32,1.57-1.72c0.67-0.4,1.45-0.6,2.32-0.6c0.87,0,1.65,0.2,2.32,0.59
				c0.68,0.39,1.2,0.96,1.57,1.69c0.37,0.74,0.55,1.59,0.56,2.57v0.56c0,0.98-0.18,1.84-0.55,2.58c-0.36,0.74-0.88,1.31-1.56,1.71
				c-0.68,0.4-1.45,0.6-2.33,0.6c-0.87,0-1.64-0.2-2.32-0.6c-0.68-0.4-1.21-0.96-1.58-1.7c-0.37-0.74-0.56-1.58-0.56-2.54v-0.56
				C135.59,20.21,135.78,19.35,136.15,18.6z M137.46,21.7c0,1.1,0.23,1.95,0.69,2.55c0.46,0.6,1.1,0.9,1.91,0.9
				c0.83,0,1.46-0.29,1.9-0.88c0.44-0.59,0.67-1.44,0.67-2.57v-0.52c0-1.11-0.22-1.96-0.67-2.55c-0.45-0.59-1.09-0.89-1.91-0.89
				c-0.81,0-1.44,0.29-1.89,0.88c-0.45,0.59-0.69,1.42-0.7,2.5V21.7z"/>
			<path d="M146.33,16.43h1.86v6.7c0,0.67,0.18,1.18,0.54,1.53c0.36,0.35,0.9,0.53,1.61,0.53c1.44,0,2.15-0.71,2.15-2.12v-6.65h1.86
				v6.7c0,1.06-0.37,1.91-1.09,2.53c-0.73,0.62-1.7,0.93-2.92,0.93c-1.23,0-2.2-0.31-2.92-0.92c-0.72-0.61-1.08-1.46-1.08-2.55
				V16.43z"/>
			<path d="M155.72,17.83v-1.4h8.51v1.4h-3.34v8.62h-1.85v-8.62H155.72z"/>
			<path d="M165.62,16.43h1.86v6.7c0,0.67,0.18,1.18,0.55,1.53c0.36,0.35,0.9,0.53,1.61,0.53c1.43,0,2.15-0.71,2.15-2.12v-6.65h1.86
				v6.7c0,1.06-0.37,1.91-1.09,2.53s-1.7,0.93-2.91,0.93c-1.23,0-2.2-0.31-2.92-0.92c-0.72-0.61-1.08-1.46-1.08-2.55V16.43z"/>
			<path d="M179.44,16.43c1.21,0,2.14,0.23,2.77,0.68s0.95,1.13,0.95,2.03c0,0.46-0.13,0.87-0.4,1.24
				c-0.26,0.37-0.65,0.65-1.16,0.85c0.58,0.15,1.03,0.42,1.34,0.83c0.32,0.41,0.47,0.89,0.47,1.46c0,0.94-0.32,1.66-0.97,2.17
				c-0.64,0.5-1.57,0.76-2.77,0.76h-3.91V16.43H179.44z M177.63,20.65h1.83c0.58,0,1.03-0.12,1.36-0.37
				c0.33-0.25,0.49-0.59,0.49-1.04c0-0.5-0.15-0.85-0.45-1.07c-0.3-0.22-0.77-0.33-1.41-0.33h-1.81V20.65z M177.63,25.06h2.07
				c0.58,0,1.04-0.13,1.37-0.41c0.33-0.27,0.49-0.65,0.49-1.13c0-1.04-0.57-1.57-1.71-1.6h-2.22V25.06z"/>
			<path d="M192.4,16.43v1.4h-5.1v2.77h4.4v1.38h-4.4v3.08h5.15v1.39h-7.01V16.43H192.4z"/>
		</g>
	</g>
</g>
<g id="V-Copy">
</g>
</svg>
